# This file uses centimeters as units for non-parametric coordinates.

mtllib concha.mtl
v -83.403198 3.297799 158.344696
v -34.376297 3.297900 174.177597
v -1.192000 3.297900 179.266693
v 32.420399 3.297900 171.915710
v 74.168304 3.297900 155.517395
v -109.248810 1.076900 182.504898
v -44.502602 1.076900 198.337708
v -0.678500 1.076900 203.426910
v 43.711098 1.076900 196.075897
v 98.844391 0.915300 179.677612
v -109.248810 25.214800 199.620499
v -44.502602 25.214800 215.453415
v -0.678500 25.214800 220.542511
v 43.711098 25.214800 213.191513
v 98.844391 25.214800 196.793198
v -109.248810 85.280594 185.124390
v -44.502602 85.280594 200.957291
v -0.678500 85.280594 206.046402
v 43.711098 85.280594 198.695404
v 98.844391 85.280594 182.297089
v -110.924004 118.763695 149.140503
v -36.964600 120.823891 169.549103
v -1.516100 125.011688 174.638199
v 35.335499 121.661491 167.287186
v 104.707298 121.274803 160.552902
v -157.268295 113.994003 112.570496
v -99.493698 147.883209 96.463699
v -1.516100 160.446594 96.463699
v 102.324501 147.045609 96.463699
v 157.586395 120.694496 112.570496
v -189.994110 113.994003 -0.490600
v -114.160301 157.547287 -1.621600
v -1.516100 170.110703 -1.621600
v 116.991104 156.709686 -1.621600
v 186.919510 120.694496 -1.621600
v -132.073608 129.907700 -100.843399
v -114.160301 136.608398 -114.202995
v -1.516100 149.171890 -114.202995
v 116.991104 135.770905 -114.202995
v 136.462006 120.694496 -110.207199
v -121.013702 105.200302 -136.143402
v -78.217400 105.200302 -163.460007
v -1.516100 117.763695 -175.035583
v 115.553299 104.362701 -167.054306
v 139.547302 113.575897 -134.705704
v -111.314499 94.139297 -157.121994
v -62.260799 96.320496 -178.312698
v 2.572600 94.139297 -189.990204
v 109.690399 94.139297 -185.158600
v 139.547302 94.139297 -165.308594
v -119.338501 25.214800 -166.746292
v -76.542305 25.214800 -186.071213
v -0.678500 25.214800 -202.675705
v 109.690399 25.214800 -197.657104
v 139.547302 25.214800 -165.308594
v -119.338501 -0.533800 -144.196793
v -76.542305 -0.533800 -171.513397
v -0.678500 -0.533800 -194.516815
v 109.690399 -0.533800 -175.107712
v 139.547302 -0.533800 -142.759109
v -101.734398 -0.323700 -140.475296
v -58.637203 0.076500 -135.273102
v -1.192000 0.076500 -158.276505
v 82.380997 0.076500 -138.867401
v 94.905899 1.341800 -123.051697
v -99.669891 -0.631900 -114.567802
v -44.833000 -0.262800 -113.397598
v -1.192000 -0.262800 -113.397598
v 42.449001 -0.262800 -113.397598
v 99.481796 -0.631900 -110.207199
v -143.276306 -0.631900 -0.490600
v -44.833000 -0.262800 0.794500
v -1.192000 -0.262800 0.794500
v 42.449001 -0.262800 0.794500
v 137.688995 -0.631900 -1.621600
v -118.495796 -0.631900 112.570496
v -39.108299 -0.262800 114.986504
v -1.192000 -0.262800 114.986504
v 36.724300 -0.262800 114.986504
v 115.477600 -0.631900 112.570496
v 151.194794 0.749300 -110.207199
v 208.696198 0.500100 -1.621600
v 179.363083 0.928300 112.570496
v 172.477203 25.214800 -110.207199
v 222.934692 25.214800 -1.621600
v 193.601593 25.214800 112.570496
v 159.913803 89.113998 -110.207199
v 210.371307 89.113998 -1.621600
v 181.038193 89.113998 112.570496
v -154.182892 -0.276000 -114.567802
v -211.770798 -0.276000 -0.490600
v -179.044907 -0.276000 112.570496
v -170.096603 25.214800 -114.567802
v -227.684494 25.214800 -0.490600
v -194.958603 25.214800 112.570496
v -154.182892 79.063202 -114.567802
v -211.770798 79.063202 -0.490600
v -179.044907 79.063202 112.570496
v -1.516100 162.057312 -75.479500
v -114.160301 149.493896 -75.479500
v -172.388519 113.994003 -65.258194
v -194.165100 79.063202 -65.258194
v -210.078812 25.214800 -65.258194
v -194.165100 -0.276000 -65.258194
v -129.945007 -0.631900 -65.258194
v -44.833000 -0.262800 -69.842201
v -1.192000 -0.262800 -69.842201
v 42.449001 -0.262800 -69.842201
v 114.054893 -0.631900 -68.790199
v 177.484299 0.500100 -68.790199
v 191.722916 25.214800 -68.790199
v 179.159409 89.113998 -68.790199
v 155.707718 120.694496 -68.790199
v 116.991104 148.656296 -75.479500
v -1.516100 170.110703 -36.750999
v -114.160301 157.547287 -36.750999
v -185.762299 113.994003 -33.269798
v -207.538895 79.063202 -33.269798
v -223.452591 25.214800 -33.269798
v -207.538895 -0.276000 -33.269798
v -140.071915 -0.631900 -33.269798
v -44.833000 -0.262800 -34.334999
v -1.192000 -0.262800 -34.334999
v 42.449001 -0.262800 -34.334999
v 127.350197 -0.631900 -36.895100
v 195.042496 0.500100 -36.895100
v 209.280991 25.214800 -36.895100
v 196.717606 89.113998 -36.895100
v 173.265900 120.694496 -36.895100
v 116.991104 156.709686 -36.750999
v -1.482500 170.110703 52.483898
v -111.120796 157.547287 52.483898
v -182.408493 113.994003 53.078995
v -204.185104 79.063202 53.078995
v -220.098801 25.214800 53.078995
v -204.185104 -0.276000 53.078995
v -137.532303 -0.631900 53.078995
v -43.646698 -0.262800 54.899902
v -1.178900 -0.262800 54.899902
v 41.288799 -0.262800 54.899902
v 133.162292 -0.631900 52.483898
v 202.717987 0.500100 52.483898
v 216.956604 25.214800 52.483898
v 204.393097 89.113998 52.483898
v 180.941406 120.694496 52.483898
v 114.018707 156.709686 52.483898
v -1.516100 147.561203 133.807602
v -79.464195 134.997787 133.807602
v -141.767303 119.131996 130.995590
v -155.949890 79.063202 153.135803
v -171.863617 25.214800 153.135803
v -155.949890 -0.276000 142.462799
v -101.007904 -0.631900 142.462799
v -31.290298 -0.262800 144.878906
v -1.192000 -0.262800 144.878906
v 28.906200 -0.262800 144.878906
v 85.144394 -0.631900 142.462799
v 153.542801 1.140500 142.462799
v 153.542801 25.214800 153.135803
v 140.979294 89.113998 153.135803
v 117.527702 120.694496 153.135803
v 82.295006 134.160187 133.807602
vt 0.445780 0.263740
vt 0.411620 0.239050
vt 0.381860 0.268780
vt 0.429360 0.297240
vt 0.384360 0.226450
vt 0.347420 0.254500
vt 0.374140 0.206580
vt 0.314420 0.236490
vt 0.397590 0.163740
vt 0.321840 0.182730
vt 0.353370 0.304780
vt 0.404420 0.325060
vt 0.316660 0.296820
vt 0.277760 0.295720
vt 0.207120 0.337840
vt 0.333550 0.395210
vt 0.390120 0.398630
vt 0.297590 0.399010
vt 0.264200 0.421180
vt 0.224040 0.477110
vt 0.336280 0.464840
vt 0.403210 0.455340
vt 0.308940 0.475520
vt 0.289250 0.503970
vt 0.246940 0.559620
vt 0.386980 0.493910
vt 0.436050 0.455970
vt 0.338730 0.541920
vt 0.287300 0.590630
vt 0.243060 0.581380
vt 0.459250 0.455700
vt 0.429960 0.521310
vt 0.475720 0.548850
vt 0.518270 0.473980
vt 0.375290 0.589660
vt 0.425360 0.633530
vt 0.325680 0.661220
vt 0.384670 0.722470
vt 0.276710 0.685810
vt 0.357900 0.789420
vt 0.568310 0.492490
vt 0.532110 0.574050
vt 0.569960 0.586130
vt 0.597950 0.506380
vt 0.493810 0.670410
vt 0.540900 0.685080
vt 0.469900 0.769900
vt 0.528760 0.786690
vt 0.456980 0.840300
vt 0.530170 0.850970
vt 0.652450 0.567780
vt 0.661450 0.587130
vt 0.732410 0.594090
vt 0.700140 0.563950
vt 0.652290 0.689130
vt 0.743090 0.660950
vt 0.664810 0.789010
vt 0.764690 0.760500
vt 0.670140 0.810160
vt 0.716800 0.797500
vt 0.753930 0.596810
vt 0.725680 0.558250
vt 0.778580 0.645090
vt 0.793330 0.738980
vt 0.784970 0.773680
vt 0.804090 0.517860
vt 0.771500 0.491310
vt 0.847950 0.571360
vt 0.888450 0.671500
vt 0.897600 0.716010
vt 0.815920 0.480640
vt 0.777100 0.452260
vt 0.866340 0.536340
vt 0.924120 0.630610
vt 0.939900 0.676400
vt 0.825280 0.431070
vt 0.791260 0.444290
vt 0.873750 0.482030
vt 0.931490 0.531860
vt 0.944670 0.510410
vt 0.827500 0.401240
vt 0.785080 0.409960
vt 0.865480 0.412770
vt 0.904860 0.444980
vt 0.949570 0.480420
vt 0.697970 0.340350
vt 0.753370 0.296890
vt 0.704830 0.261870
vt 0.661480 0.316070
vt 0.786990 0.289300
vt 0.732480 0.245630
vt 0.822340 0.287320
vt 0.762600 0.232320
vt 0.898770 0.271460
vt 0.846430 0.191150
vt 0.595650 0.288300
vt 0.617670 0.224600
vt 0.511780 0.212450
vt 0.515640 0.272120
vt 0.632710 0.199510
vt 0.508620 0.186440
vt 0.651100 0.175550
vt 0.507850 0.161360
vt 0.724480 0.113360
vt 0.552560 0.088250
vt 0.472340 0.266800
vt 0.458950 0.216700
vt 0.448090 0.197870
vt 0.435680 0.181560
vt 0.445370 0.136700
vt 0.994300 0.477720
vt 0.970550 0.202720
vt 0.920400 0.112370
vt 0.799730 0.029720
vt 0.626680 0.001950
vt 0.512110 0.024550
vt 0.872810 0.823960
vt 0.791900 0.850710
vt 0.436930 0.998040
vt 0.581510 0.995310
vt 0.553300 0.960210
vt 0.442660 0.955020
vt 0.133840 0.745780
vt 0.267110 0.913640
vt 0.301470 0.889480
vt 0.180580 0.746610
vt 0.144570 0.386770
vt 0.108960 0.606670
vt 0.147280 0.581980
vt 0.701310 0.836090
vt 0.535440 0.890670
vt 0.451940 0.879500
vt 0.340110 0.826750
vt 0.247620 0.711480
vt 0.208300 0.590590
vt 0.740130 0.433550
vt 0.626970 0.369400
vt 0.657380 0.384700
vt 0.519240 0.324980
vt 0.578080 0.346730
vt 0.484490 0.312010
vt 0.717280 0.456600
vt 0.611930 0.397460
vt 0.639560 0.410700
vt 0.512300 0.357190
vt 0.566840 0.377280
vt 0.471510 0.345070
vt 0.690040 0.514370
vt 0.586010 0.452550
vt 0.614350 0.465840
vt 0.482720 0.414950
vt 0.538810 0.433730
vt 0.442070 0.402530
vt 0.614670 0.590590
vt 0.595610 0.692240
vt 0.626550 0.523330
vt 0.642610 0.481780
vt 0.667960 0.425940
vt 0.688250 0.401980
vt 0.731790 0.367300
vt 0.793580 0.339470
vt 0.830670 0.342120
vt 0.869380 0.354180
vt 0.929770 0.357660
vt 0.998040 0.307490
vt 0.666270 0.933240
vt 0.712420 0.953240
vt 0.615390 0.877500
vt 0.595300 0.840660
vt 0.595780 0.794550
vn 0.008534 -0.998771 0.048822
vn 0.002267 -0.999824 0.018600
vn -0.093329 -0.871514 0.481407
vn -0.259445 -0.821134 0.508357
vn -0.000680 -0.999998 0.001927
vn 0.014062 -0.849665 0.527136
vn -0.003726 -0.999866 0.015936
vn 0.114242 -0.870845 0.478098
vn -0.005799 -0.998837 0.047866
vn 0.267543 -0.818826 0.507883
vn -0.186918 -0.026468 0.982019
vn -0.407118 -0.042289 0.912396
vn 0.024885 -0.024966 0.999379
vn 0.229009 -0.026631 0.973060
vn 0.439688 -0.027555 0.897728
vn -0.184966 0.437783 0.879849
vn -0.368636 0.414191 0.832198
vn 0.023460 0.411710 0.911013
vn 0.201195 0.400177 0.894080
vn 0.384281 0.324083 0.864464
vn -0.164002 0.762730 0.625576
vn -0.283858 0.729077 0.622793
vn 0.008646 0.775412 0.631397
vn 0.151359 0.749704 0.644231
vn 0.215632 0.704565 0.676085
vn -0.181809 0.895017 0.407297
vn -0.464246 0.742102 0.483488
vn 0.003299 0.910176 0.414208
vn 0.159095 0.913441 0.374586
vn 0.395347 0.737337 0.547755
vn -0.602056 0.726710 0.330788
vn -0.263640 0.924342 0.275835
vn -0.296747 0.947312 0.120588
vn -0.639463 0.747552 0.179592
vn 0.003997 0.958822 0.283981
vn 0.003805 0.994751 0.102252
vn 0.228076 0.934318 0.273918
vn 0.260724 0.959057 0.110601
vn 0.539103 0.753678 0.375949
vn 0.597194 0.786800 0.155901
vn -0.643811 0.764796 0.024390
vn -0.291998 0.956372 0.009508
vn -0.275379 0.954855 -0.111442
vn -0.642830 0.751460 -0.148585
vn 0.003625 0.999992 0.001906
vn 0.003597 0.994182 -0.107653
vn 0.263041 0.964778 -0.003589
vn 0.253805 0.959007 -0.126052
vn 0.616817 0.786309 -0.035425
vn 0.619363 0.750858 -0.229351
vn -0.618521 0.635877 -0.461618
vn -0.233262 0.856923 -0.459643
vn -0.189747 0.799931 -0.569304
vn -0.613648 0.513866 -0.599481
vn 0.002031 0.903967 -0.427597
vn -0.002846 0.825381 -0.564570
vn 0.185642 0.893387 -0.409141
vn 0.150695 0.833259 -0.531949
vn 0.663526 0.681833 -0.307957
vn 0.670867 0.672863 -0.311757
vn -0.255783 0.281745 -0.924768
vn -0.562234 0.275540 -0.779725
vn -0.037644 0.303186 -0.952188
vn 0.203210 0.311378 -0.928305
vn 0.797742 0.203432 -0.567647
vn -0.304315 -0.015642 -0.952443
vn -0.586251 -0.010149 -0.810066
vn -0.049251 -0.020432 -0.998577
vn 0.218285 -0.048918 -0.974658
vn 0.810692 -0.089565 -0.578582
vn -0.191603 -0.842023 -0.504268
vn -0.389011 -0.783537 -0.484500
vn -0.022332 -0.856533 -0.515610
vn 0.184215 -0.858636 -0.478341
vn 0.469945 -0.835562 -0.284585
vn 0.004737 -0.999988 0.001405
vn 0.005427 -0.999983 0.001955
vn 0.000361 -0.999969 0.007891
vn -0.000779 -0.999949 0.010068
vn 0.002454 -0.999991 -0.003418
vn 0.002232 -0.999991 -0.003561
vn 0.002440 -0.999993 -0.002707
vn -0.000076 -0.999988 -0.004842
vn -0.000221 -0.999987 -0.005160
vn 0.003408 -0.999956 -0.008791
vn -0.000115 -1.000000 -0.000391
vn 0.002659 -0.999996 0.000263
vn 0.002645 -0.999997 -0.000058
vn -0.000180 -1.000000 0.000036
vn 0.000000 -1.000000 0.000000
vn 0.000000 -1.000000 0.000000
vn -0.002853 -0.999996 0.000488
vn -0.002741 -0.999996 0.000065
vn 0.005142 -0.999983 -0.002790
vn 0.005769 -0.999983 -0.000643
vn -0.000239 -1.000000 0.000387
vn 0.002819 -0.999996 -0.000386
vn 0.003117 -0.999995 -0.000888
vn 0.000209 -1.000000 0.000588
vn 0.000000 -1.000000 0.000000
vn 0.000000 -1.000000 -0.000000
vn -0.002867 -0.999996 -0.000360
vn -0.003221 -0.999994 -0.001161
vn 0.006419 -0.999975 0.002846
vn 0.008197 -0.999934 0.008028
vn 0.011753 -0.999460 0.030697
vn -0.005557 -0.998059 0.062033
vn 0.000998 -0.998429 0.056022
vn 0.007381 -0.998107 0.061052
vn -0.002669 -0.999448 0.033103
vn 0.352401 -0.917028 -0.186744
vn 0.305341 -0.941280 -0.144077
vn 0.339580 -0.940042 -0.031728
vn 0.325797 -0.941380 0.087523
vn 0.313008 -0.928919 0.197828
vn 0.351046 -0.846011 0.401289
vn 0.897426 -0.060279 -0.437028
vn 0.908884 -0.016035 -0.416740
vn 0.996712 -0.012248 -0.080094
vn 0.969811 -0.014125 0.243447
vn 0.859836 -0.002952 0.510562
vn 0.655382 -0.015048 0.755148
vn 0.883363 0.248602 -0.397325
vn 0.859101 0.321921 -0.397884
vn 0.936630 0.341255 -0.079175
vn 0.912432 0.336382 0.233056
vn 0.809246 0.301669 0.504100
vn 0.636661 0.245385 0.731060
vn -0.331007 -0.890583 -0.311922
vn -0.325005 -0.945627 0.012683
vn -0.324245 -0.941510 -0.091783
vn -0.308482 -0.937255 0.162454
vn -0.331350 -0.938235 0.099610
vn -0.349495 -0.863681 0.363192
vn -0.751251 -0.000175 -0.660017
vn -0.999244 0.004403 0.038626
vn -0.967110 0.004011 -0.254327
vn -0.900922 -0.004485 0.433958
vn -0.962810 0.004408 0.270144
vn -0.727536 -0.037868 0.685024
vn -0.724344 0.284988 -0.627779
vn -0.921710 0.386226 0.035783
vn -0.894675 0.375224 -0.242411
vn -0.841553 0.356756 0.405604
vn -0.891319 0.373353 0.257211
vn -0.660336 0.327371 0.675859
vn -0.241505 0.937188 -0.251702
vn 0.003496 0.965620 -0.259935
vn -0.656618 0.645726 -0.389732
vn -0.787303 0.332612 -0.519156
vn -0.844977 0.006793 -0.534759
vn -0.358033 -0.900966 -0.245097
vn -0.000617 -0.999999 -0.001278
vn 0.003065 -0.999995 0.000781
vn 0.000000 -1.000000 0.000000
vn -0.003195 -0.999995 0.000584
vn 0.006306 -0.999968 -0.004829
vn 0.325357 -0.928436 -0.179303
vn 0.887684 -0.033380 -0.459243
vn 0.847007 0.318055 -0.425935
vn 0.657356 0.690437 -0.301961
vn 0.238328 0.934974 -0.262723
s 1
usemtl concha:defaultMat
f 1/1/1 2/2/2 7/3/3 6/4/4
f 2/2/2 3/5/5 8/6/6 7/3/3
f 3/5/5 4/7/7 9/8/8 8/6/6
f 4/7/7 5/9/9 10/10/10 9/8/8
f 6/4/4 7/3/3 12/11/11 11/12/12
f 7/3/3 8/6/6 13/13/13 12/11/11
f 8/6/6 9/8/8 14/14/14 13/13/13
f 9/8/8 10/10/10 15/15/15 14/14/14
f 11/12/12 12/11/11 17/16/16 16/17/17
f 12/11/11 13/13/13 18/18/18 17/16/16
f 13/13/13 14/14/14 19/19/19 18/18/18
f 14/14/14 15/15/15 20/20/20 19/19/19
f 16/17/17 17/16/16 22/21/21 21/22/22
f 17/16/16 18/18/18 23/23/23 22/21/21
f 18/18/18 19/19/19 24/24/24 23/23/23
f 19/19/19 20/20/20 25/25/25 24/24/24
f 21/22/22 22/21/21 148/26/26 149/27/27
f 22/21/21 23/23/23 147/28/28 148/26/26
f 23/23/23 24/24/24 162/29/29 147/28/28
f 24/24/24 25/25/25 161/30/30 162/29/29
f 26/31/31 27/32/32 132/33/33 133/34/34
f 27/32/32 28/35/35 131/36/36 132/33/33
f 28/35/35 29/37/37 146/38/38 131/36/36
f 29/37/37 30/39/39 145/40/40 146/38/38
f 31/41/41 32/42/42 116/43/43 117/44/44
f 32/42/42 33/45/45 115/46/46 116/43/43
f 33/45/45 34/47/47 130/48/48 115/46/46
f 34/47/47 35/49/49 129/50/50 130/48/48
f 36/51/51 37/52/52 42/53/53 41/54/54
f 37/52/52 38/55/55 43/56/56 42/53/53
f 38/55/55 39/57/57 44/58/58 43/56/56
f 39/57/57 40/59/59 45/60/60 44/58/58
f 41/54/54 42/53/53 47/61/61 46/62/62
f 42/53/53 43/56/56 48/63/63 47/61/61
f 43/56/56 44/58/58 49/64/64 48/63/63
f 44/58/58 45/60/60 50/65/65 49/64/64
f 46/62/62 47/61/61 52/66/66 51/67/67
f 47/61/61 48/63/63 53/68/68 52/66/66
f 48/63/63 49/64/64 54/69/69 53/68/68
f 49/64/64 50/65/65 55/70/70 54/69/69
f 51/67/67 52/66/66 57/71/71 56/72/72
f 52/66/66 53/68/68 58/73/73 57/71/71
f 53/68/68 54/69/69 59/74/74 58/73/73
f 54/69/69 55/70/70 60/75/75 59/74/74
f 56/72/72 57/71/71 62/76/76 61/77/77
f 57/71/71 58/73/73 63/78/78 62/76/76
f 58/73/73 59/74/74 64/79/79 63/78/78
f 59/74/74 60/75/75 65/80/80 64/79/79
f 61/77/77 62/76/76 67/81/81 66/82/82
f 62/76/76 63/78/78 68/83/83 67/81/81
f 63/78/78 64/79/79 69/84/84 68/83/83
f 64/79/79 65/80/80 70/85/85 69/84/84
f 121/86/86 122/87/87 72/88/88 71/89/89
f 122/87/87 123/90/90 73/91/91 72/88/88
f 123/90/90 124/92/92 74/93/93 73/91/91
f 124/92/92 125/94/94 75/95/95 74/93/93
f 137/96/96 138/97/97 77/98/98 76/99/99
f 138/97/97 139/100/100 78/101/101 77/98/98
f 139/100/100 140/102/102 79/103/103 78/101/101
f 140/102/102 141/104/104 80/105/105 79/103/103
f 153/106/106 154/107/107 2/2/2 1/1/1
f 154/107/107 155/108/108 3/5/5 2/2/2
f 155/108/108 156/109/109 4/7/7 3/5/5
f 156/109/109 157/110/110 5/9/9 4/7/7
f 70/85/85 65/80/80 60/75/75 81/111/111
f 75/95/95 125/94/94 126/112/112 82/113/113
f 80/105/105 141/104/104 142/114/114 83/115/115
f 5/9/9 157/110/110 158/116/116 10/10/10
f 81/117/111 60/75/75 55/70/70 84/118/117
f 82/119/113 126/120/112 127/121/118 85/122/119
f 83/123/115 142/124/114 143/125/120 86/126/121
f 10/127/10 158/128/116 159/129/122 15/15/15
f 84/118/117 55/70/70 50/65/65 87/130/123
f 85/122/119 127/121/118 128/131/124 88/132/125
f 86/126/121 143/125/120 144/133/126 89/134/127
f 15/15/15 159/129/122 160/135/128 20/20/20
f 87/130/123 50/65/65 45/60/60 40/59/59
f 88/132/125 128/131/124 129/50/50 35/49/49
f 89/134/127 144/133/126 145/40/40 30/39/39
f 20/20/20 160/135/128 161/30/30 25/25/25
f 61/77/77 66/82/82 90/136/129 56/72/72
f 121/86/86 71/89/89 91/137/130 120/138/131
f 137/96/96 76/99/99 92/139/132 136/140/133
f 153/106/106 1/1/1 6/4/4 152/141/134
f 56/72/72 90/136/129 93/142/135 51/67/67
f 120/138/131 91/137/130 94/143/136 119/144/137
f 136/140/133 92/139/132 95/145/138 135/146/139
f 152/141/134 6/4/4 11/12/12 151/147/140
f 51/67/67 93/142/135 96/148/141 46/62/62
f 119/144/137 94/143/136 97/149/142 118/150/143
f 135/146/139 95/145/138 98/151/144 134/152/145
f 151/147/140 11/12/12 16/17/17 150/153/146
f 46/62/62 96/148/141 36/51/51 41/54/54
f 118/150/143 97/149/142 31/41/41 117/44/44
f 134/152/145 98/151/144 26/31/31 133/34/34
f 150/153/146 16/17/17 21/22/22 149/27/27
f 100/154/147 99/155/148 38/55/55 37/52/52
f 101/156/149 100/154/147 37/52/52 36/51/51
f 96/148/141 102/157/150 101/156/149 36/51/51
f 93/142/135 103/158/151 102/157/150 96/148/141
f 90/136/129 104/159/152 103/158/151 93/142/135
f 66/82/82 105/160/153 104/159/152 90/136/129
f 66/82/82 67/81/81 106/161/154 105/160/153
f 67/81/81 68/83/83 107/162/155 106/161/154
f 68/83/83 69/84/84 108/163/156 107/162/155
f 69/84/84 70/85/85 109/164/157 108/163/156
f 110/165/158 109/164/157 70/85/85 81/111/111
f 111/166/159 110/167/158 81/117/111 84/118/117
f 112/168/160 111/166/159 84/118/117 87/130/123
f 113/169/161 112/168/160 87/130/123 40/59/59
f 114/170/162 113/169/161 40/59/59 39/57/57
f 99/155/148 114/170/162 39/57/57 38/55/55
f 116/43/43 115/46/46 99/155/148 100/154/147
f 117/44/44 116/43/43 100/154/147 101/156/149
f 102/157/150 118/150/143 117/44/44 101/156/149
f 103/158/151 119/144/137 118/150/143 102/157/150
f 104/159/152 120/138/131 119/144/137 103/158/151
f 105/160/153 121/86/86 120/138/131 104/159/152
f 105/160/153 106/161/154 122/87/87 121/86/86
f 106/161/154 107/162/155 123/90/90 122/87/87
f 107/162/155 108/163/156 124/92/92 123/90/90
f 108/163/156 109/164/157 125/94/94 124/92/92
f 126/112/112 125/94/94 109/164/157 110/165/158
f 127/121/118 126/120/112 110/167/158 111/166/159
f 128/131/124 127/121/118 111/166/159 112/168/160
f 129/50/50 128/131/124 112/168/160 113/169/161
f 130/48/48 129/50/50 113/169/161 114/170/162
f 115/46/46 130/48/48 114/170/162 99/155/148
f 132/33/33 131/36/36 33/45/45 32/42/42
f 133/34/34 132/33/33 32/42/42 31/41/41
f 97/149/142 134/152/145 133/34/34 31/41/41
f 94/143/136 135/146/139 134/152/145 97/149/142
f 91/137/130 136/140/133 135/146/139 94/143/136
f 71/89/89 137/96/96 136/140/133 91/137/130
f 71/89/89 72/88/88 138/97/97 137/96/96
f 72/88/88 73/91/91 139/100/100 138/97/97
f 73/91/91 74/93/93 140/102/102 139/100/100
f 74/93/93 75/95/95 141/104/104 140/102/102
f 142/114/114 141/104/104 75/95/95 82/113/113
f 143/125/120 142/124/114 82/119/113 85/122/119
f 144/133/126 143/125/120 85/122/119 88/132/125
f 145/40/40 144/133/126 88/132/125 35/49/49
f 146/38/38 145/40/40 35/49/49 34/47/47
f 131/36/36 146/38/38 34/47/47 33/45/45
f 148/26/26 147/28/28 28/35/35 27/32/32
f 149/27/27 148/26/26 27/32/32 26/31/31
f 98/151/144 150/153/146 149/27/27 26/31/31
f 95/145/138 151/147/140 150/153/146 98/151/144
f 92/139/132 152/141/134 151/147/140 95/145/138
f 76/99/99 153/106/106 152/141/134 92/139/132
f 76/99/99 77/98/98 154/107/107 153/106/106
f 77/98/98 78/101/101 155/108/108 154/107/107
f 78/101/101 79/103/103 156/109/109 155/108/108
f 79/103/103 80/105/105 157/110/110 156/109/109
f 158/116/116 157/110/110 80/105/105 83/115/115
f 159/129/122 158/128/116 83/123/115 86/126/121
f 160/135/128 159/129/122 86/126/121 89/134/127
f 161/30/30 160/135/128 89/134/127 30/39/39
f 162/29/29 161/30/30 30/39/39 29/37/37
f 147/28/28 162/29/29 29/37/37 28/35/35
