# This file uses centimeters as units for non-parametric coordinates.

mtllib pan.mtl
v -216.324722 59.230598 99.009552
v -144.268311 59.230598 145.024078
v -7.506802 59.230598 181.518387
v 156.985397 59.230598 173.584869
v 244.447800 83.187904 157.717834
v -240.368607 134.278305 109.244560
v -159.953796 134.278305 159.104324
v -7.328103 134.278305 198.648361
v 176.245010 134.278305 190.051727
v 273.852905 134.278305 172.858749
v -200.363388 209.326004 86.293549
v -133.855713 209.326004 127.530556
v -7.625498 209.326004 160.235733
v 144.200104 209.326004 153.125900
v 224.927460 185.478394 138.906372
v -261.508026 209.326004 9.535003
v -159.451111 227.355026 40.818188
v -16.157299 227.355026 70.679512
v 124.292610 221.197510 78.284996
v 290.337921 185.478394 117.604362
v -295.635132 198.470810 -41.628189
v -170.826797 204.026886 -40.206192
v -26.111002 212.992508 -33.096359
v 117.182816 204.026886 -17.454838
v 280.384094 178.403503 66.441170
v -308.432800 209.326004 -107.912933
v -169.404816 227.355026 -117.866753
v -30.376896 227.355026 -115.022766
v 115.760818 227.355026 -99.381248
v 227.771393 209.326004 -2.687570
v -224.536789 209.326004 -148.862396
v -140.965607 209.326004 -207.162918
v -1.937598 209.326004 -204.319077
v 112.916893 209.326004 -153.128235
v 179.424606 209.326004 -82.029907
v -269.596802 134.278305 -175.083954
v -168.550293 134.278305 -245.575500
v -0.450902 134.278305 -242.136795
v 138.420303 134.278305 -180.241882
v 218.835190 134.278305 -94.276657
v -242.514908 59.230598 -163.390625
v -151.971298 59.230598 -228.445435
v -1.344398 59.230598 -225.272171
v 123.092308 59.230598 -168.150726
v 195.148697 59.230598 -88.815163
v -333.410187 59.230598 -117.696945
v -182.783325 30.504097 -128.803864
v -32.156403 30.504097 -125.630447
v 126.173492 35.165096 -108.176575
v 247.529037 59.230598 -0.280502
v -319.544769 59.230598 -43.732647
v -184.323914 30.504097 -42.145943
v -27.534601 19.101599 -34.212566
v 127.714096 30.504097 -16.758696
v 304.531219 83.187904 76.857063
v -282.570526 59.230598 13.358124
v -171.999084 30.504097 48.265591
v -16.750399 30.504097 81.586494
v 135.417114 30.504097 76.826385
v 315.315338 83.187904 133.947968
v 277.291504 134.278305 1.656897
v 340.905823 134.278305 85.240623
v 352.941010 134.278305 147.102417
v -371.035919 134.278305 -125.571877
v -355.562134 134.278305 -45.426437
v -314.298676 134.278305 16.435219
vt 0.759820 0.505900
vt 0.832120 0.517700
vt 0.844430 0.407210
vt 0.768660 0.415150
vt 0.697370 0.643120
vt 0.758390 0.684670
vt 0.565480 0.770450
vt 0.596030 0.839970
vt 0.472030 0.885700
vt 0.473990 0.826020
vt 0.903810 0.560830
vt 0.928440 0.452870
vt 0.831720 0.724060
vt 0.694340 0.872980
vt 0.573750 0.922050
vt 0.998040 0.495830
vt 0.928050 0.294200
vt 0.930200 0.746400
vt 0.775010 0.923200
vt 0.490350 0.972200
vt 0.247870 0.001950
vt 0.110430 0.106720
vt 0.214020 0.120190
vt 0.346190 0.002680
vt 0.001950 0.322300
vt 0.120250 0.303540
vt 0.024260 0.568810
vt 0.104840 0.510250
vt 0.197600 0.824700
vt 0.208090 0.761490
vt 0.295000 0.150650
vt 0.451330 0.043870
vt 0.204940 0.298440
vt 0.176180 0.473920
vt 0.187010 0.644450
vt 0.347620 0.210550
vt 0.409070 0.123710
vt 0.275280 0.338320
vt 0.225280 0.458230
vt 0.205180 0.550900
vt 0.430470 0.232710
vt 0.522050 0.149900
vt 0.346610 0.363950
vt 0.299050 0.490720
vt 0.281230 0.597550
vt 0.480580 0.283960
vt 0.565200 0.224850
vt 0.409330 0.395640
vt 0.368740 0.506580
vt 0.355330 0.604260
vt 0.574520 0.303030
vt 0.648040 0.171870
vt 0.499710 0.431790
vt 0.407420 0.551420
vt 0.361750 0.701260
vt 0.643140 0.351110
vt 0.711980 0.227900
vt 0.558770 0.489870
vt 0.460970 0.616870
vt 0.356660 0.797250
vt 0.702340 0.418970
vt 0.743230 0.298750
vt 0.630250 0.571020
vt 0.515040 0.686900
vt 0.386380 0.852050
vt 0.278680 0.710890
vt 0.295370 0.833620
vt 0.340930 0.919460
vt 0.655680 0.077080
vt 0.757550 0.168950
vt 0.814520 0.258280
vt 0.869570 0.183210
vt 0.827930 0.084410
vn -0.242342 -0.713802 0.657082
vn -0.368789 0.120951 0.921610
vn -0.689063 0.117235 0.715156
vn -0.527294 -0.627574 0.572811
vn -0.063895 -0.707334 0.703986
vn -0.087920 0.127218 0.987971
vn 0.101533 -0.727547 0.678503
vn 0.119586 0.143248 0.982435
vn 0.275745 0.191250 0.942013
vn 0.243768 -0.750598 0.614150
vn -0.216810 0.772986 0.596226
vn -0.466877 0.715229 0.520070
vn -0.057156 0.765184 0.641270
vn 0.094152 0.775292 0.624546
vn 0.226300 0.812641 0.537031
vn -0.062384 0.997506 -0.033025
vn -0.465206 0.856860 0.222205
vn 0.010433 0.999941 0.002898
vn 0.122660 0.992079 -0.027077
vn 0.363575 0.921040 0.139642
vn -0.045760 0.998713 0.021867
vn -0.426388 0.876905 0.221880
vn 0.008012 0.999899 0.011764
vn 0.046343 0.997293 0.057094
vn 0.430096 0.873522 -0.227985
vn -0.060018 0.997885 0.024985
vn -0.455152 0.856654 -0.242859
vn 0.003942 0.999979 0.005088
vn 0.067913 0.997179 0.031972
vn 0.386080 0.921754 -0.036205
vn -0.126032 0.762676 -0.634383
vn -0.361548 0.718606 -0.594045
vn 0.135843 0.750280 -0.647014
vn 0.365124 0.719076 -0.591282
vn 0.617869 0.622545 -0.480286
vn -0.273217 0.132256 -0.952817
vn -0.497507 0.134139 -0.857026
vn 0.200577 0.122540 -0.971984
vn 0.565620 0.107904 -0.817576
vn 0.798874 0.098466 -0.593384
vn -0.138438 -0.694397 -0.706150
vn -0.412366 -0.615920 -0.671265
vn 0.147097 -0.689609 -0.709085
vn 0.396384 -0.656014 -0.642281
vn 0.674149 -0.532097 -0.512246
vn -0.098174 -0.981840 -0.162332
vn -0.550371 -0.763705 -0.337411
vn 0.025357 -0.982469 -0.184693
vn 0.156054 -0.972636 -0.172124
vn 0.548405 -0.802646 -0.234545
vn -0.116510 -0.993018 0.018434
vn -0.519606 -0.834803 0.181973
vn 0.003956 -0.999962 -0.007809
vn 0.132769 -0.991142 -0.003142
vn 0.517153 -0.833726 -0.193528
vn -0.124903 -0.978900 0.161720
vn -0.552288 -0.746496 0.371108
vn -0.016189 -0.983955 0.177681
vn 0.125974 -0.983660 0.128624
vn 0.438435 -0.860970 0.257888
vn 0.844493 0.101672 -0.525828
vn 0.913879 0.133408 -0.383442
vn 0.821913 0.199400 0.533571
vn -0.861161 0.130528 -0.491289
vn -0.931314 0.127043 0.341341
vn -0.808798 0.115646 0.576603
s 1
usemtl bolillo:defaultMat
f 2/1/1 7/2/2 6/3/3 1/4/4
f 3/5/5 8/6/6 7/2/2 2/1/1
f 4/7/7 9/8/8 8/6/6 3/5/5
f 10/9/9 9/8/8 4/7/7 5/10/10
f 7/2/2 12/11/11 11/12/12 6/3/3
f 8/6/6 13/13/13 12/11/11 7/2/2
f 9/8/8 14/14/14 13/13/13 8/6/6
f 15/15/15 14/14/14 9/8/8 10/9/9
f 11/12/12 12/11/11 17/16/16 16/17/17
f 12/11/11 13/13/13 18/18/18 17/16/16
f 13/13/13 14/14/14 19/19/19 18/18/18
f 14/14/14 15/15/15 20/20/20 19/19/19
f 16/21/17 17/22/16 22/23/21 21/24/22
f 17/22/16 18/25/18 23/26/23 22/23/21
f 18/25/18 19/27/19 24/28/24 23/26/23
f 19/27/19 20/29/20 25/30/25 24/28/24
f 21/24/22 22/23/21 27/31/26 26/32/27
f 22/23/21 23/26/23 28/33/28 27/31/26
f 23/26/23 24/28/24 29/34/29 28/33/28
f 24/28/24 25/30/25 30/35/30 29/34/29
f 26/32/27 27/31/26 32/36/31 31/37/32
f 27/31/26 28/33/28 33/38/33 32/36/31
f 28/33/28 29/34/29 34/39/34 33/38/33
f 29/34/29 30/35/30 35/40/35 34/39/34
f 32/36/31 37/41/36 36/42/37 31/37/32
f 33/38/33 38/43/38 37/41/36 32/36/31
f 34/39/34 39/44/39 38/43/38 33/38/33
f 40/45/40 39/44/39 34/39/34 35/40/35
f 37/41/36 42/46/41 41/47/42 36/42/37
f 38/43/38 43/48/43 42/46/41 37/41/36
f 39/44/39 44/49/44 43/48/43 38/43/38
f 45/50/45 44/49/44 39/44/39 40/45/40
f 41/47/42 42/46/41 47/51/46 46/52/47
f 42/46/41 43/48/43 48/53/48 47/51/46
f 43/48/43 44/49/44 49/54/49 48/53/48
f 44/49/44 45/50/45 50/55/50 49/54/49
f 46/52/47 47/51/46 52/56/51 51/57/52
f 47/51/46 48/53/48 53/58/53 52/56/51
f 48/53/48 49/54/49 54/59/54 53/58/53
f 49/54/49 50/55/50 55/60/55 54/59/54
f 51/57/52 52/56/51 57/61/56 56/62/57
f 52/56/51 53/58/53 58/63/58 57/61/56
f 53/58/53 54/59/54 59/64/59 58/63/58
f 54/59/54 55/60/55 60/65/60 59/64/59
f 56/62/57 57/61/56 2/1/1 1/4/4
f 57/61/56 58/63/58 3/5/5 2/1/1
f 58/63/58 59/64/59 4/7/7 3/5/5
f 59/64/59 60/65/60 5/10/10 4/7/7
f 50/55/50 45/50/45 40/45/40 61/66/61
f 55/60/55 50/55/50 61/66/61 62/67/62
f 60/65/60 55/60/55 62/67/62 63/68/63
f 10/9/9 5/10/10 60/65/60 63/68/63
f 61/66/61 40/45/40 35/40/35 30/35/30
f 62/67/62 61/66/61 30/35/30 25/30/25
f 63/68/63 62/67/62 25/30/25 20/29/20
f 15/15/15 10/9/9 63/68/63 20/20/20
f 46/52/47 64/69/64 36/42/37 41/47/42
f 51/57/52 65/70/65 64/69/64 46/52/47
f 56/62/57 66/71/66 65/70/65 51/57/52
f 1/4/4 6/3/3 66/71/66 56/62/57
f 64/69/64 26/32/27 31/37/32 36/42/37
f 65/70/65 21/72/22 26/73/27 64/69/64
f 66/71/66 16/17/17 21/72/22 65/70/65
f 6/3/3 11/12/12 16/17/17 66/71/66
