# This file uses centimeters as units for non-parametric coordinates.

mtllib pollo.mtl
v -249.462891 6.205400 135.741325
v -32.831905 15.937402 233.509056
v 183.799103 5.888700 121.971336
v -256.056610 28.504700 135.741325
v -32.831905 28.676497 233.509056
v 189.660217 28.504700 121.971336
v -249.462891 50.803898 135.741325
v -32.831905 42.267601 233.509056
v 183.799103 51.120705 121.971336
v -274.248993 50.803898 -12.734719
v -32.831905 42.267601 -12.734719
v 187.930206 51.120705 -12.734719
v -249.462891 50.803898 -169.472573
v -34.529705 42.267601 -234.192055
v 154.881882 51.120705 -165.341485
v -256.056610 28.504700 -169.472573
v -34.529705 28.676497 -234.192055
v 160.743011 28.504700 -165.341485
v -249.462891 6.205400 -169.472573
v -34.529705 15.937402 -234.192055
v 154.881882 5.888700 -165.341485
v -274.248993 6.205400 -12.734719
v -32.831905 15.937402 -12.734719
v 187.930206 5.888700 -12.734719
v 193.791199 28.504700 -12.734719
v -280.842834 28.504700 -12.734719
v -80.517799 46.378605 -242.013924
v -83.210899 28.607199 -242.013924
v -80.517799 11.263802 -242.013924
v -113.391899 2.848300 -12.734719
v -66.436996 11.263802 249.855064
v -67.932899 28.607199 249.855064
v -66.436996 46.378605 249.855064
v -113.391899 54.794003 -12.734719
v 10.614202 46.196701 -241.291665
v 12.786998 28.607199 -241.291665
v 10.614202 11.497599 -241.291665
v 43.691601 3.194100 -12.734719
v -3.697896 11.497599 253.177513
v -2.491003 28.607199 253.177513
v -3.697896 46.196701 253.177513
v 43.691601 54.525002 -12.734719
vt 0.460660 0.046930
vt 0.478910 0.214310
vt 0.492320 0.213390
vt 0.492320 0.029000
vt 0.473000 0.250320
vt 0.476640 0.271720
vt 0.492320 0.272320
vt 0.492320 0.248620
vt 0.507270 0.215680
vt 0.521590 0.044310
vt 0.504290 0.272290
vt 0.514580 0.250130
vt 0.729170 0.228450
vt 0.743240 0.033690
vt 0.678200 0.421180
vt 0.712310 0.330030
vt 0.977210 0.364700
vt 0.931870 0.125640
vt 0.933390 0.485470
vt 0.950710 0.423510
vt 0.998040 0.361400
vt 0.958120 0.115540
vt 0.945960 0.501860
vt 0.966720 0.429960
vt 0.038920 0.095730
vt 0.001950 0.352770
vt 0.022360 0.356340
vt 0.065300 0.105660
vt 0.030250 0.420970
vt 0.049430 0.491500
vt 0.062480 0.476040
vt 0.045880 0.415520
vt 0.259900 0.231260
vt 0.276710 0.029620
vt 0.324540 0.428010
vt 0.282390 0.334420
vt 0.446190 0.575000
vt 0.237770 0.618930
vt 0.235240 0.647790
vt 0.492320 0.590820
vt 0.481950 0.489380
vt 0.492320 0.490420
vt 0.743640 0.639360
vt 0.741430 0.611710
vt 0.530170 0.574650
vt 0.511690 0.483030
vt 0.273130 0.001950
vt 0.058610 0.077880
vt 0.941960 0.098530
vt 0.747210 0.005320
vn -0.115965 -0.986765 0.113344
vn -0.002810 -0.989319 0.145741
vn -0.438858 -0.000024 0.898557
vn -0.821496 -0.000021 0.570215
vn -0.004827 -0.999563 0.029151
vn 0.022585 -0.985701 0.166982
vn 0.484974 -0.000019 0.874529
vn -0.049713 -0.000029 0.998764
vn -0.009291 0.988883 0.148408
vn -0.120250 0.986072 0.114901
vn 0.029287 0.985014 0.169970
vn -0.005133 0.999507 0.030970
vn 0.033959 0.999423 -0.000390
vn -0.121268 0.992620 0.000370
vn -0.038316 0.999266 0.000466
vn 0.001323 0.999994 -0.003112
vn 0.016442 0.991293 -0.130648
vn -0.119103 0.985131 -0.123821
vn -0.016020 0.990934 -0.133391
vn 0.003443 0.998261 -0.058842
vn -0.317278 -0.000053 -0.948333
vn -0.815023 -0.000020 -0.579429
vn 0.373349 -0.000043 -0.927691
vn 0.008230 -0.000011 -0.999966
vn 0.022590 -0.991497 -0.128156
vn -0.114925 -0.985821 -0.122268
vn -0.022792 -0.991190 -0.130469
vn 0.004029 -0.998395 -0.056489
vn 0.039324 -0.999226 -0.000484
vn -0.117550 -0.993067 0.000306
vn -0.044141 -0.999025 0.000493
vn 0.001840 -0.999993 -0.003244
vn 0.116823 -0.993110 -0.009271
vn 0.122281 -0.985149 -0.120539
vn 0.829085 -0.000020 -0.559123
vn 0.995152 0.000000 -0.098351
vn 0.127491 -0.985409 0.112760
vn 0.843931 -0.000020 0.536452
vn 0.127624 0.984234 -0.122458
vn 0.121299 0.992572 -0.009299
vn 0.132499 0.984550 0.114477
vn -1.000000 -0.000000 -0.000128
s 1
usemtl pechugaDePollo:defaultMat
f 1/1/1 31/2/2 32/3/3 4/4/4
f 2/5/5 39/6/6 40/7/7 5/8/8
f 4/4/4 32/3/3 33/9/9 7/10/10
f 5/8/8 40/7/7 41/11/11 8/12/12
f 7/10/10 33/9/9 34/13/13 10/14/14
f 8/12/12 41/11/11 42/15/15 11/16/16
f 10/14/14 34/13/13 27/17/17 13/18/18
f 11/16/16 42/15/15 35/19/19 14/20/20
f 13/18/18 27/17/17 28/21/21 16/22/22
f 14/20/20 35/19/19 36/23/23 17/24/24
f 16/25/22 28/26/21 29/27/25 19/28/26
f 17/29/24 36/30/23 37/31/27 20/32/28
f 19/28/26 29/27/25 30/33/29 22/34/30
f 20/32/28 37/31/27 38/35/31 23/36/32
f 22/34/30 30/33/29 31/2/2 1/1/1
f 23/36/32 38/35/31 39/6/6 2/5/5
f 24/37/33 21/38/34 18/39/35 25/40/36
f 3/41/37 24/37/33 25/40/36 6/42/38
f 25/40/36 18/43/35 15/44/39 12/45/40
f 6/42/38 25/40/36 12/45/40 9/46/41
f 19/28/26 22/34/30 26/47/42 16/48/22
f 22/34/30 1/1/1 4/4/4 26/47/42
f 16/49/22 26/50/42 10/14/14 13/18/18
f 26/50/42 4/4/4 7/10/10 10/14/14
f 27/17/17 14/20/20 17/24/24 28/21/21
f 29/27/25 28/26/21 17/29/24 20/32/28
f 30/33/29 29/27/25 20/32/28 23/36/32
f 31/2/2 30/33/29 23/36/32 2/5/5
f 32/3/3 31/2/2 2/5/5 5/8/8
f 33/9/9 32/3/3 5/8/8 8/12/12
f 34/13/13 33/9/9 8/12/12 11/16/16
f 27/17/17 34/13/13 11/16/16 14/20/20
f 35/19/19 15/44/39 18/43/35 36/23/23
f 37/31/27 36/30/23 18/39/35 21/38/34
f 38/35/31 37/31/27 21/38/34 24/37/33
f 39/6/6 38/35/31 24/37/33 3/41/37
f 40/7/7 39/6/6 3/41/37 6/42/38
f 41/11/11 40/7/7 6/42/38 9/46/41
f 42/15/15 41/11/11 9/46/41 12/45/40
f 35/19/19 42/15/15 12/45/40 15/44/39
