# This file uses centimeters as units for non-parametric coordinates.

mtllib tortilla1.mtl
v 132.064447 -2.115726 -71.420074
v 79.030718 -2.115726 -124.453765
v 6.585497 -2.115726 -143.865386
v -65.859854 -2.115726 -124.453765
v -118.893332 -2.115726 -71.420074
v -138.305029 -2.115726 1.025116
v -118.893332 -2.115726 73.470490
v -65.859854 -2.115726 126.503998
v 6.585497 -2.115726 145.915680
v 79.030718 -2.115726 126.503998
v 132.064447 -2.115726 73.470490
v 151.476091 -2.115726 1.025116
v 257.543283 -2.115726 -143.865386
v 151.476091 -2.115726 -249.932617
v 6.585497 -2.115726 -288.756042
v -138.305029 -2.115726 -249.932617
v -244.372503 -6.404412 -143.865386
v -283.195868 -6.404412 1.025116
v -244.013556 -6.458812 145.708649
v -138.305029 -6.404412 251.983185
v 6.585497 -2.143028 290.598908
v 151.476091 -2.115726 251.983185
v 254.485239 -2.537125 144.150178
v 296.366770 -2.115726 1.025116
v 257.543283 3.373256 -143.865386
v 151.476091 3.373256 -249.932617
v 6.585497 3.373256 -288.756042
v -138.305029 3.373256 -249.932617
v -244.372503 -0.915535 -143.865386
v -283.195868 -0.915535 1.025116
v -244.014349 -0.861329 145.708893
v -138.305029 -0.915535 251.983185
v 6.585264 3.405955 290.595795
v 151.476091 3.373256 251.983185
v 254.481546 3.799860 144.150788
v 296.366770 3.373256 1.025116
v 128.451181 7.827042 -69.053619
v 79.030718 3.373256 -124.453765
v 6.534685 6.884348 -140.347076
v -68.128431 5.787554 -128.214996
v -118.744391 3.852352 -71.331268
v -142.593390 6.106755 1.025116
v -118.893332 3.373256 73.470490
v -70.547598 6.723953 134.334870
v 6.335714 8.982739 141.930024
v 80.375791 4.149050 128.735566
v 131.654154 3.787555 73.234406
v 162.865755 10.857838 1.244233
v 6.585497 -2.115726 1.025116
v 6.225008 10.557340 1.071930
vt 0.540480 0.143190
vt 0.458420 0.139210
vt 0.419110 0.291760
vt 0.523710 0.266370
vt 0.390050 0.119680
vt 0.298370 0.363130
vt 0.311720 0.836090
vt 0.391660 0.818560
vt 0.343860 0.628100
vt 0.197110 0.713730
vt 0.487260 0.852210
vt 0.485500 0.709610
vt 0.625410 0.861500
vt 0.625410 0.742410
vt 0.716680 0.853380
vt 0.756960 0.723090
vt 0.793000 0.865360
vt 0.905220 0.686630
vt 0.837190 0.931620
vt 0.998040 0.847660
vt 0.878000 0.127030
vt 0.798650 0.146100
vt 0.839830 0.306680
vt 0.951430 0.398790
vt 0.713190 0.147340
vt 0.730580 0.271750
vt 0.625410 0.145220
vt 0.625410 0.261770
vt 0.419730 0.297240
vt 0.523880 0.271280
vt 0.303450 0.368940
vt 0.337570 0.619560
vt 0.343780 0.619240
vt 0.486480 0.704810
vt 0.625410 0.737510
vt 0.756930 0.718090
vt 0.905950 0.675640
vt 0.912190 0.676320
vt 0.946430 0.404600
vt 0.838470 0.311970
vt 0.729940 0.277430
vt 0.625410 0.266490
vt 0.498190 0.420690
vt 0.559600 0.397550
vt 0.461450 0.471670
vt 0.466600 0.545120
vt 0.539800 0.592320
vt 0.625410 0.615400
vt 0.706880 0.598660
vt 0.783840 0.563860
vt 0.794730 0.485170
vt 0.761160 0.426540
vt 0.697040 0.397610
vt 0.625410 0.377390
vt 0.625410 0.001950
vt 0.369150 0.979980
vt 0.579390 0.907290
vt 0.625410 0.998040
vt 0.625410 0.501760
vn 0.000000 -1.000000 -0.000000
vn 0.000000 -1.000000 -0.000000
vn 0.030251 -0.998168 -0.052397
vn 0.052397 -0.998168 -0.030251
vn 0.000000 -1.000000 -0.000000
vn 0.000000 -0.998168 -0.060503
vn 0.008234 -0.999966 -0.000895
vn -0.018522 -0.998362 -0.054127
vn 0.018257 -0.999832 0.001791
vn -0.025125 -0.999313 -0.027245
vn 0.020093 -0.999798 -0.000113
vn -0.031299 -0.999510 0.000000
vn 0.017530 -0.999795 -0.010121
vn -0.027076 -0.999511 0.015633
vn 0.015003 -0.999830 -0.010704
vn -0.008357 -0.999296 0.036585
vn 0.007574 -0.999965 -0.003429
vn 0.011020 -0.998352 0.056324
vn -0.000783 -1.000000 0.000046
vn 0.031837 -0.997998 0.054654
vn -0.001150 -0.999999 -0.000664
vn 0.054577 -0.998012 0.031506
vn -0.000330 -1.000000 -0.000749
vn 0.063070 -0.998009 0.000257
vn 0.037610 0.996957 -0.068278
vn 0.069552 0.996001 -0.056083
vn 0.004387 0.997255 -0.073910
vn -0.053667 0.996681 -0.061209
vn -0.091273 0.994990 -0.040807
vn -0.098399 0.995147 0.000781
vn -0.092602 0.994349 0.051909
vn -0.071132 0.993948 0.083708
vn -0.005472 0.996075 0.088345
vn 0.047139 0.996838 0.063965
vn 0.067308 0.996355 0.052412
vn 0.093159 0.995635 0.005768
vn 0.011139 0.999616 -0.025387
vn 0.013273 0.999742 -0.018450
vn 0.000186 0.999807 -0.019648
vn -0.026714 0.999575 -0.011669
vn -0.036047 0.999310 -0.008969
vn -0.034953 0.999388 0.001464
vn -0.038837 0.999140 0.014537
vn -0.041872 0.998888 0.021670
vn -0.002838 0.999763 0.021574
vn 0.025962 0.999583 0.012657
vn 0.014869 0.999670 0.020942
vn 0.019623 0.999743 0.011400
vn 0.000000 -1.000000 -0.000000
vn -0.007162 0.999974 -0.001148
s 1
usemtl tortilla1:defaultMat
f 1/1/1 2/2/2 14/3/3 13/4/4
f 2/2/2 3/5/5 15/6/6 14/3/3
f 3/7/5 4/8/7 16/9/8 15/10/6
f 4/8/7 5/11/9 17/12/10 16/9/8
f 5/11/9 6/13/11 18/14/12 17/12/10
f 6/13/11 7/15/13 19/16/14 18/14/12
f 7/15/13 8/17/15 20/18/16 19/16/14
f 8/17/15 9/19/17 21/20/18 20/18/16
f 9/21/17 10/22/19 22/23/20 21/24/18
f 10/22/19 11/25/21 23/26/22 22/23/20
f 11/25/21 12/27/23 24/28/24 23/26/22
f 12/27/23 1/1/1 13/4/4 24/28/24
f 13/4/4 14/3/3 26/29/25 25/30/26
f 14/3/3 15/6/6 27/31/27 26/29/25
f 15/6/6 16/32/8 28/33/28 27/31/27
f 16/9/8 17/12/10 29/34/29 28/33/28
f 17/12/10 18/14/12 30/35/30 29/34/29
f 18/14/12 19/16/14 31/36/31 30/35/30
f 19/16/14 20/18/16 32/37/32 31/36/31
f 20/38/16 21/24/18 33/39/33 32/37/32
f 21/24/18 22/23/20 34/40/34 33/39/33
f 22/23/20 23/26/22 35/41/35 34/40/34
f 23/26/22 24/28/24 36/42/36 35/41/35
f 24/28/24 13/4/4 25/30/26 36/42/36
f 25/30/26 26/29/25 38/43/37 37/44/38
f 26/29/25 27/31/27 39/45/39 38/43/37
f 27/31/27 28/33/28 40/46/40 39/45/39
f 28/33/28 29/34/29 41/47/41 40/46/40
f 29/34/29 30/35/30 42/48/42 41/47/41
f 30/35/30 31/36/31 43/49/43 42/48/42
f 31/36/31 32/37/32 44/50/44 43/49/43
f 32/37/32 33/39/33 45/51/45 44/50/44
f 33/39/33 34/40/34 46/52/46 45/51/45
f 34/40/34 35/41/35 47/53/47 46/52/46
f 35/41/35 36/42/36 48/54/48 47/53/47
f 36/42/36 25/30/26 37/44/38 48/54/48
f 2/2/2 1/1/1 49/55/49 3/5/5
f 4/8/7 3/7/5 49/56/49 5/11/9
f 6/13/11 5/57/9 49/58/49 7/15/13
f 8/17/15 7/15/13 49/58/49 9/19/17
f 10/22/19 9/21/17 49/55/49 11/25/21
f 12/27/23 11/25/21 49/55/49 1/1/1
f 50/59/50 37/44/38 38/43/37 39/45/39
f 50/59/50 39/45/39 40/46/40 41/47/41
f 50/59/50 41/47/41 42/48/42 43/49/43
f 50/59/50 43/49/43 44/50/44 45/51/45
f 50/59/50 45/51/45 46/52/46 47/53/47
f 50/59/50 47/53/47 48/54/48 37/44/38
