# This file uses centimeters as units for non-parametric coordinates.

mtllib tortilla2.mtl
v 225.636642 -3.071303 -13.606096
v 172.602966 -3.071303 -66.639910
v 100.157425 -3.071303 -86.051531
v 27.712042 -3.071303 -66.639910
v -25.321716 -3.071303 -13.606096
v -44.733421 -3.071303 58.839338
v -25.321716 -3.071303 131.284895
v 27.712042 -3.071303 184.318586
v 100.157425 -3.071303 203.730329
v 172.602966 -3.071303 184.318586
v 225.636642 -3.071303 131.284895
v 245.048355 -3.071303 58.839338
v 344.500671 -6.970499 -82.232195
v 244.053223 -5.409001 -190.472063
v 100.157425 -3.071303 -230.942400
v -44.733421 -3.071303 -192.118914
v -150.800858 -3.071303 -86.051531
v -189.624268 -3.071303 58.839338
v -150.800858 -3.071303 203.730329
v -44.442001 -3.128999 309.293073
v 100.157425 -3.071303 348.621321
v 242.363144 -5.265701 305.212873
v 345.503052 -4.806804 200.438825
v 385.812866 -3.988500 58.860334
v 344.500671 6.316802 -82.232195
v 244.056122 4.758504 -190.473528
v 100.157425 2.417597 -230.942400
v -44.733421 2.417597 -192.118914
v -150.800858 2.417597 -86.051531
v -189.624268 2.417597 58.839338
v -150.800858 2.417597 203.730329
v -44.448631 2.486201 309.304548
v 100.157425 2.417597 348.621321
v 242.513458 5.376997 305.471296
v 345.482697 4.120496 200.427839
v 385.812225 3.334697 58.860334
v 225.636642 2.417597 -13.606096
v 173.535339 2.861297 -68.261126
v 100.192276 3.619100 -84.768816
v 27.517763 2.532699 -66.988665
v -20.138168 6.618002 -10.389178
v -49.226582 5.752497 58.758772
v -19.133314 7.757396 128.254621
v 25.516228 6.231998 188.121809
v 100.307762 6.630800 200.195295
v 176.394638 6.807597 191.494245
v 218.673126 7.403299 127.435529
v 245.048355 2.417597 58.839338
v 100.157425 -3.071303 58.839338
v 100.563873 6.369304 59.053816
vt 0.739590 0.840380
vt 0.840590 0.827180
vt 0.877830 0.659090
vt 0.754770 0.722080
vt 0.919780 0.830490
vt 0.998040 0.499520
vt 0.932800 0.156650
vt 0.839980 0.165530
vt 0.886730 0.343690
vt 0.738150 0.156420
vt 0.760060 0.283520
vt 0.632450 0.152700
vt 0.632450 0.267510
vt 0.525630 0.159930
vt 0.508870 0.283710
vt 0.424850 0.173850
vt 0.387270 0.344830
vt 0.345600 0.170290
vt 0.266990 0.500260
vt 0.332480 0.844030
vt 0.425280 0.834160
vt 0.379550 0.661710
vt 0.526990 0.842940
vt 0.505790 0.720530
vt 0.632450 0.847010
vt 0.632450 0.735690
vt 0.875190 0.649370
vt 0.753200 0.710060
vt 0.991050 0.499670
vt 0.884680 0.348790
vt 0.759220 0.288390
vt 0.632450 0.272320
vt 0.509490 0.288670
vt 0.388740 0.350340
vt 0.274050 0.500230
vt 0.383480 0.651820
vt 0.507100 0.712540
vt 0.632450 0.729280
vt 0.774030 0.557210
vt 0.709070 0.595730
vt 0.810090 0.498810
vt 0.782020 0.439530
vt 0.710070 0.409430
vt 0.632450 0.390760
vt 0.558740 0.414110
vt 0.489140 0.445550
vt 0.458100 0.505940
vt 0.476180 0.569290
vt 0.555290 0.594630
vt 0.632450 0.610950
vt 0.632450 0.998040
vt 0.632450 0.001950
vt 0.632450 0.502670
vn -0.011845 -0.999884 0.009601
vn -0.011359 -0.999921 0.005469
vn 0.045835 -0.995542 -0.082437
vn 0.087343 -0.995038 -0.047647
vn -0.004144 -0.999990 0.001827
vn -0.001982 -0.997441 -0.071469
vn 0.000000 -1.000000 -0.000000
vn -0.030251 -0.998168 -0.052396
vn 0.000000 -1.000000 -0.000000
vn -0.052396 -0.998168 -0.030251
vn 0.000000 -1.000000 0.000000
vn -0.060502 -0.998168 -0.000000
vn -0.000012 -1.000000 -0.000111
vn -0.052712 -0.998144 0.030492
vn 0.000090 -1.000000 -0.000156
vn -0.030462 -0.998142 0.052761
vn -0.003811 -0.999991 -0.001771
vn -0.000324 -0.997257 0.074021
vn -0.006927 -0.999960 -0.005628
vn 0.043411 -0.996184 0.075718
vn -0.005817 -0.999965 -0.005975
vn 0.077431 -0.996026 0.044019
vn -0.007437 -0.999965 0.003872
vn 0.095482 -0.995430 0.001596
vn 0.049665 0.995141 -0.085018
vn 0.088782 0.994911 -0.047640
vn -0.002527 0.997146 -0.075454
vn -0.031952 0.997355 -0.065282
vn -0.064121 0.996978 -0.043857
vn -0.089032 0.996027 -0.001766
vn -0.077668 0.996014 0.043865
vn -0.044032 0.995855 0.079581
vn -0.002982 0.994715 0.102628
vn 0.056437 0.993374 0.100112
vn 0.100358 0.993908 0.045565
vn 0.106230 0.994318 -0.006805
vn -0.002861 0.999995 -0.001416
vn -0.003277 0.999994 0.001284
vn -0.000501 0.999959 -0.009087
vn 0.000019 0.999811 -0.019425
vn -0.007826 0.999837 -0.016250
vn -0.022134 0.999749 -0.003560
vn -0.015825 0.999842 0.008080
vn -0.007906 0.999757 0.020603
vn -0.005319 0.999837 0.017232
vn 0.000624 0.999929 0.011882
vn 0.013098 0.999859 -0.010532
vn 0.009279 0.999876 -0.012754
vn 0.000000 -1.000000 0.000000
vn 0.007759 0.999867 -0.014332
s 1
usemtl tortilla2:defaultMat
f 1/1/1 2/2/2 14/3/3 13/4/4
f 2/2/2 3/5/5 15/6/6 14/3/3
f 3/7/5 4/8/7 16/9/8 15/6/6
f 4/8/7 5/10/9 17/11/10 16/9/8
f 5/10/9 6/12/11 18/13/12 17/11/10
f 6/12/11 7/14/13 19/15/14 18/13/12
f 7/14/13 8/16/15 20/17/16 19/15/14
f 8/16/15 9/18/17 21/19/18 20/17/16
f 9/20/17 10/21/19 22/22/20 21/19/18
f 10/21/19 11/23/21 23/24/22 22/22/20
f 11/23/21 12/25/23 24/26/24 23/24/22
f 12/25/23 1/1/1 13/4/4 24/26/24
f 13/4/4 14/3/3 26/27/25 25/28/26
f 14/3/3 15/6/6 27/29/27 26/27/25
f 15/6/6 16/9/8 28/30/28 27/29/27
f 16/9/8 17/11/10 29/31/29 28/30/28
f 17/11/10 18/13/12 30/32/30 29/31/29
f 18/13/12 19/15/14 31/33/31 30/32/30
f 19/15/14 20/17/16 32/34/32 31/33/31
f 20/17/16 21/19/18 33/35/33 32/34/32
f 21/19/18 22/22/20 34/36/34 33/35/33
f 22/22/20 23/24/22 35/37/35 34/36/34
f 23/24/22 24/26/24 36/38/36 35/37/35
f 24/26/24 13/4/4 25/28/26 36/38/36
f 25/28/26 26/27/25 38/39/37 37/40/38
f 26/27/25 27/29/27 39/41/39 38/39/37
f 27/29/27 28/30/28 40/42/40 39/41/39
f 28/30/28 29/31/29 41/43/41 40/42/40
f 29/31/29 30/32/30 42/44/42 41/43/41
f 30/32/30 31/33/31 43/45/43 42/44/42
f 31/33/31 32/34/32 44/46/44 43/45/43
f 32/34/32 33/35/33 45/47/45 44/46/44
f 33/35/33 34/36/34 46/48/46 45/47/45
f 34/36/34 35/37/35 47/49/47 46/48/46
f 35/37/35 36/38/36 48/50/48 47/49/47
f 36/38/36 25/28/26 37/40/38 48/50/48
f 2/2/2 1/1/1 49/51/49 3/5/5
f 4/8/7 3/7/5 49/52/49 5/10/9
f 6/12/11 5/10/9 49/52/49 7/14/13
f 8/16/15 7/14/13 49/52/49 9/18/17
f 10/21/19 9/20/17 49/51/49 11/23/21
f 12/25/23 11/23/21 49/51/49 1/1/1
f 50/53/50 37/40/38 38/39/37 39/41/39
f 50/53/50 39/41/39 40/42/40 41/43/41
f 50/53/50 41/43/41 42/44/42 43/45/43
f 50/53/50 43/45/43 44/46/44 45/47/45
f 50/53/50 45/47/45 46/48/46 47/49/47
f 50/53/50 47/49/47 48/50/48 37/40/38
