# This file uses centimeters as units for non-parametric coordinates.

mtllib cereal.mtl
v -73.012817 -111.220657 45.086777
v -54.441494 -111.220657 60.852432
v -21.033005 -111.220657 71.224533
v 11.974588 -111.220657 64.586395
v 32.550896 -111.220657 49.235641
v -109.219574 -53.292801 76.624390
v -78.300461 -53.292801 101.798050
v -22.679089 -53.292801 118.359589
v 32.274700 -53.292801 107.760201
v 66.531876 -53.292801 83.249016
v -126.029823 6.935935 93.606125
v -89.377869 6.935935 123.845650
v -23.443382 6.935935 143.740051
v 41.699711 6.935935 131.007568
v 82.308830 6.935935 101.563942
v -133.903748 67.164574 99.130684
v -94.566513 67.164574 131.018173
v -23.801378 67.164574 151.996780
v 46.114368 67.164574 138.570511
v 89.698669 67.164574 107.522095
v -134.936050 120.307465 101.405861
v -95.246719 120.307465 133.971954
v -23.848276 120.307465 155.397141
v 46.693161 120.307465 141.685089
v 90.667557 120.307465 109.975876
v -164.074265 120.307465 64.813995
v 123.233643 120.307465 68.241959
v -179.500305 120.307465 -10.343102
v 142.385880 120.307465 -9.486112
v -162.266678 120.307465 -82.314232
v 120.867271 120.307465 -88.052475
v -132.140579 120.307465 -127.885414
v -91.483147 120.307465 -160.880615
v -22.134293 120.307465 -170.922714
v 45.780075 120.307465 -156.576935
v 85.002907 120.307465 -127.885414
v -131.133057 67.164574 -125.382019
v -90.836349 67.164574 -157.689514
v -22.102493 67.164574 -167.522324
v 45.209381 67.164574 -153.475571
v 84.084312 67.164574 -125.382019
v -123.448349 6.935935 -119.303192
v -85.902298 6.935935 -149.940979
v -21.860495 6.935935 -159.265610
v 40.856518 6.935935 -145.944733
v 77.077682 6.935935 -119.303192
v -107.041801 -53.292801 -100.617363
v -75.368591 -53.292801 -126.122612
v -21.343800 -53.292801 -133.885147
v 31.563307 -53.292801 -122.795853
v 62.119019 -53.292801 -100.617363
v -71.704735 -111.220657 -65.915283
v -52.680511 -111.220657 -81.888542
v -20.231010 -111.220657 -86.750092
v 11.547293 -111.220657 -79.805145
v 29.900318 -111.220657 -65.915283
v -85.801300 -111.220657 -43.853790
v -58.050556 -111.220657 -48.715343
v -20.231010 -111.220657 -48.715343
v 17.588633 -111.220657 -48.715343
v 46.681866 -111.220657 -46.631767
v -93.865219 -111.220657 -9.011915
v -58.050556 -111.220657 -8.597019
v -20.231010 -111.220657 -8.597019
v 17.588633 -111.220657 -8.597019
v 56.750771 -111.220657 -8.597019
v -86.647095 -111.220657 27.372345
v -58.050556 -111.220657 31.521204
v -20.231010 -111.220657 31.521204
v 17.588633 -111.220657 31.521204
v 47.789150 -111.220657 29.031828
v 90.058357 -53.292801 -69.826645
v 106.822006 -53.292801 -9.094914
v 91.901840 -53.292801 50.988823
v 110.197472 6.935935 -82.316132
v 130.069382 6.935935 -9.363012
v 112.382744 6.935935 62.811813
v 119.630577 67.164574 -86.379295
v 140.958267 67.164574 -9.450211
v 121.975952 67.164574 66.657974
v -130.510880 -53.292801 -65.390884
v -143.936340 -53.292801 -9.757408
v -131.919067 -53.292801 48.338947
v -151.268982 6.935935 -76.987785
v -167.183731 6.935935 -10.158807
v -152.938187 6.935935 59.628643
v -160.991898 67.164574 -80.760544
v -178.072739 67.164574 -10.289304
v -162.783493 67.164574 63.301411
v -20.357309 -99.261978 -91.935333
v -55.256882 -99.261978 -86.754784
v -75.717384 -99.261978 -69.732849
v -90.878258 -99.261978 -46.223167
v -99.550964 -99.261978 -9.093915
v -91.787933 -99.261978 29.678923
v -77.124176 -99.261978 48.556248
v -57.150768 -99.261978 65.356888
v -21.219900 -99.261978 76.409882
v 14.279766 -99.261978 69.335953
v 36.409554 -99.261978 52.977501
v 52.798309 -99.261978 31.447405
v 62.436619 -99.261978 -8.651819
v 51.607418 -99.261978 -49.183437
v 33.558887 -99.261978 -69.732849
v 13.820171 -99.261978 -84.534515
v -127.177521 120.307465 94.127914
v -90.134163 120.307465 124.523033
v -154.373062 120.307465 59.975540
v -23.495577 120.307465 144.519852
v 42.343201 120.307465 131.721878
v 83.385818 120.307465 102.126640
v 113.780937 120.307465 63.175011
v -168.770721 120.307465 -10.171105
v 131.656372 120.307465 -9.371212
v -152.686066 120.307465 -77.344078
v 111.572350 120.307465 -82.699821
v -86.621490 120.307465 -150.672791
v -124.568329 120.307465 -119.877182
v -21.895794 120.307465 -160.045303
v 41.490913 120.307465 -146.655930
v 78.098869 120.307465 -119.877182
v -127.177521 88.250572 94.127914
v -90.134163 88.250572 124.523033
v -97.332985 88.250572 67.974266
v -154.373062 88.250572 59.975540
v -23.495577 88.250572 144.519852
v -21.895794 88.250572 67.974266
v 42.343201 88.250572 131.721878
v 53.541401 88.250572 67.974266
v 83.385818 88.250572 102.126640
v 113.780937 88.250572 63.175011
v -97.332985 88.250572 -9.371212
v -168.770721 88.250572 -10.171105
v -21.895794 88.250572 -9.371212
v 53.541401 88.250572 -9.371212
v 131.656372 88.250572 -9.371212
v -97.332985 88.250572 -86.716682
v -152.686066 88.250572 -77.344078
v -21.895794 88.250572 -86.716682
v 53.541401 88.250572 -86.716682
v 111.572350 88.250572 -82.699821
v -86.621490 88.250572 -150.672791
v -124.568329 88.250572 -119.877182
v -21.895794 88.250572 -160.045303
v 41.490913 88.250572 -146.655930
v 78.098869 88.250572 -119.877182
vt 0.362380 0.521210
vt 0.346270 0.550700
vt 0.415030 0.590770
vt 0.434450 0.542410
vt 0.311790 0.579580
vt 0.369780 0.645410
vt 0.269020 0.586720
vt 0.307690 0.668370
vt 0.233410 0.573920
vt 0.250310 0.657860
vt 0.491920 0.616260
vt 0.510240 0.552960
vt 0.447650 0.695140
vt 0.381710 0.742270
vt 0.314160 0.742580
vt 0.567270 0.618410
vt 0.581350 0.547170
vt 0.532110 0.713620
vt 0.478030 0.786540
vt 0.419950 0.814970
vt 0.634590 0.605810
vt 0.643410 0.534780
vt 0.611640 0.701500
vt 0.579270 0.781560
vt 0.556270 0.831090
vt 0.691850 0.514700
vt 0.686880 0.579000
vt 0.738780 0.492810
vt 0.692460 0.454200
vt 0.674520 0.665920
vt 0.774520 0.563360
vt 0.656770 0.732030
vt 0.752610 0.669650
vt 0.656870 0.757490
vt 0.686150 0.752830
vt 0.761000 0.354640
vt 0.687220 0.346850
vt 0.819530 0.401410
vt 0.856790 0.486580
vt 0.891400 0.617870
vt 0.714530 0.216370
vt 0.667020 0.246200
vt 0.779180 0.215940
vt 0.842230 0.247330
vt 0.925380 0.322790
vt 0.633650 0.125420
vt 0.639820 0.181480
vt 0.648790 0.078390
vt 0.689090 0.072300
vt 0.818440 0.163500
vt 0.585910 0.179440
vt 0.563580 0.110830
vt 0.495200 0.147080
vt 0.526310 0.204380
vt 0.540360 0.035670
vt 0.446700 0.099250
vt 0.509130 0.001950
vt 0.372040 0.114430
vt 0.203850 0.052980
vt 0.243240 0.175360
vt 0.426510 0.199380
vt 0.461320 0.244320
vt 0.366750 0.167580
vt 0.283830 0.181140
vt 0.200000 0.228850
vt 0.366290 0.267010
vt 0.398050 0.299980
vt 0.310460 0.247390
vt 0.242810 0.261320
vt 0.192160 0.297970
vt 0.317710 0.339030
vt 0.339930 0.360240
vt 0.279160 0.329490
vt 0.238150 0.340710
vt 0.211520 0.364200
vt 0.327990 0.373300
vt 0.308210 0.354740
vt 0.310070 0.398080
vt 0.342830 0.399140
vt 0.274380 0.347440
vt 0.266870 0.402070
vt 0.239560 0.357900
vt 0.226470 0.404800
vt 0.217880 0.379320
vt 0.196860 0.409190
vt 0.312590 0.450950
vt 0.354760 0.441520
vt 0.268950 0.458650
vt 0.227570 0.466360
vt 0.186790 0.473070
vt 0.323610 0.502370
vt 0.355650 0.488800
vt 0.280660 0.513320
vt 0.239730 0.525570
vt 0.207700 0.532030
vt 0.333270 0.539690
vt 0.347670 0.514680
vt 0.301960 0.564060
vt 0.263840 0.568920
vt 0.234310 0.556520
vt 0.185800 0.399840
vt 0.142000 0.362300
vt 0.174120 0.476780
vt 0.131170 0.506760
vt 0.201540 0.546410
vt 0.192930 0.621910
vt 0.108910 0.328170
vt 0.109040 0.556900
vt 0.232200 0.712180
vt 0.077260 0.304910
vt 0.097500 0.620320
vt 0.337400 0.791890
vt 0.001950 0.274330
vt 0.055560 0.690900
vt 0.516010 0.874150
vt 0.356910 0.389820
vt 0.423040 0.344710
vt 0.370170 0.437280
vt 0.442730 0.415730
vt 0.371350 0.490430
vt 0.444990 0.494970
vt 0.490260 0.302440
vt 0.514480 0.392520
vt 0.519260 0.492370
vt 0.555990 0.271710
vt 0.581150 0.371390
vt 0.587270 0.480330
vt 0.615860 0.251860
vt 0.640020 0.355810
vt 0.646160 0.467660
vt 0.647410 0.601550
vt 0.655330 0.531210
vt 0.657400 0.464460
vt 0.627190 0.694980
vt 0.599430 0.773100
vt 0.583880 0.817930
vt 0.572850 0.840010
vt 0.651270 0.353670
vt 0.948190 0.673290
vt 0.926170 0.657620
vt 0.628310 0.250960
vt 0.998040 0.296260
vt 0.973140 0.304790
vt 0.599480 0.179760
vt 0.580190 0.111580
vt 0.567020 0.045590
vt 0.563210 0.025380
vt 0.819940 0.080300
vt 0.812890 0.102980
vn -0.541521 -0.647898 0.535708
vn -0.335483 -0.644862 0.686734
vn -0.380220 -0.500634 0.777688
vn -0.613907 -0.502663 0.608644
vn -0.042625 -0.646802 0.761466
vn -0.047090 -0.503415 0.862761
vn 0.281859 -0.648609 0.707009
vn 0.320179 -0.504211 0.802033
vn 0.528507 -0.650009 0.546049
vn 0.599729 -0.503173 0.622207
vn -0.420212 -0.256047 0.870553
vn -0.683175 -0.258705 0.682894
vn -0.051848 -0.256902 0.965046
vn 0.353870 -0.258129 0.898969
vn 0.666614 -0.259346 0.698832
vn -0.435134 -0.101007 0.894682
vn -0.704452 -0.102202 0.702355
vn -0.053825 -0.101363 0.993392
vn 0.367193 -0.101914 0.924545
vn 0.688265 -0.102511 0.718180
vn -0.430479 0.115674 0.895158
vn -0.699265 0.136458 0.701717
vn -0.053276 0.107252 0.992804
vn 0.362762 0.113507 0.924943
vn 0.682924 0.131942 0.718475
vn 0.464559 0.755268 -0.462338
vn 0.208269 0.879204 -0.428515
vn 0.000000 1.000000 0.000000
vn 0.444704 0.877946 -0.177342
vn 0.025133 0.886260 -0.462506
vn 0.000000 1.000000 0.000000
vn -0.168733 0.889133 -0.425408
vn 0.000000 1.000000 0.000000
vn -0.425050 0.789370 -0.442976
vn -0.427347 0.884955 -0.185010
vn 0.000000 1.000000 -0.000000
vn 0.483738 0.875192 0.005943
vn 0.000000 1.000000 0.000000
vn 0.000000 1.000000 0.000000
vn -0.477351 0.878683 0.007227
vn 0.000000 1.000000 0.000000
vn 0.451515 0.873521 0.181923
vn 0.000000 1.000000 -0.000000
vn 0.000000 1.000000 -0.000000
vn -0.433773 0.876153 0.210231
vn 0.170126 0.884284 0.434855
vn 0.476766 0.766938 0.429536
vn -0.013871 0.896716 0.442389
vn -0.171023 0.888534 0.425744
vn -0.432303 0.767279 0.473706
vn -0.732659 0.135609 -0.666949
vn -0.358191 0.111370 -0.926982
vn -0.363642 -0.105666 -0.925526
vn -0.738304 -0.105359 -0.666188
vn 0.030652 0.114312 -0.992972
vn 0.030687 -0.101272 -0.994385
vn 0.366755 0.113458 -0.923373
vn 0.371066 -0.101332 -0.923061
vn 0.664907 0.134010 -0.734806
vn 0.669792 -0.101231 -0.735616
vn -0.348758 -0.265936 -0.898691
vn -0.713818 -0.265942 -0.647873
vn 0.029642 -0.257796 -0.965745
vn 0.357796 -0.256909 -0.897764
vn 0.649744 -0.256799 -0.715463
vn -0.314524 -0.515188 -0.797281
vn -0.639461 -0.512132 -0.573420
vn 0.026980 -0.506105 -0.862050
vn 0.323996 -0.502455 -0.801602
vn 0.584799 -0.500369 -0.638468
vn -0.271743 -0.663949 -0.696654
vn -0.561012 -0.660985 -0.498362
vn 0.026454 -0.644427 -0.764208
vn 0.286428 -0.646216 -0.707364
vn 0.518295 -0.643929 -0.562785
vn -0.340151 -0.892344 -0.296682
vn -0.124201 -0.941906 -0.312070
vn 0.000000 -1.000000 -0.000000
vn -0.322819 -0.938076 -0.125701
vn 0.010934 -0.949309 -0.314155
vn 0.000000 -1.000000 0.000000
vn 0.125045 -0.944744 -0.303024
vn 0.000000 -1.000000 0.000000
vn 0.308212 -0.892908 -0.328209
vn 0.313546 -0.938003 -0.147780
vn 0.000000 -1.000000 -0.000000
vn -0.346148 -0.938171 -0.004156
vn 0.000000 -1.000000 0.000000
vn 0.000000 -1.000000 0.000000
vn 0.343847 -0.939012 -0.005118
vn 0.000000 -1.000000 0.000000
vn -0.320740 -0.938975 0.124303
vn 0.000000 -1.000000 0.000000
vn 0.000000 -1.000000 0.000000
vn 0.308279 -0.942448 0.129445
vn -0.151283 -0.940686 0.303682
vn -0.330569 -0.887683 0.320537
vn -0.018884 -0.943041 0.332140
vn 0.123202 -0.944957 0.303114
vn 0.303502 -0.901823 0.307574
vn 0.677452 -0.659732 -0.325290
vn 0.781144 -0.498367 -0.376091
vn 0.746856 -0.664889 -0.011357
vn 0.866786 -0.498510 -0.013045
vn 0.691021 -0.659684 0.295478
vn 0.796019 -0.499045 0.342502
vn 0.867273 -0.260855 -0.424020
vn 0.964738 -0.262804 -0.014676
vn 0.884579 -0.261223 0.386370
vn 0.895199 -0.103952 -0.433373
vn 0.994357 -0.105019 -0.015027
vn 0.912752 -0.104075 0.395036
vn 0.889931 0.132269 -0.436494
vn 0.990655 0.135547 -0.015143
vn 0.907540 0.135327 0.397564
vn -0.697390 -0.661253 -0.276392
vn -0.802350 -0.502842 -0.321536
vn -0.747086 -0.664664 -0.009144
vn -0.865594 -0.500634 -0.010552
vn -0.694964 -0.664657 0.274329
vn -0.804217 -0.501772 0.318527
vn -0.893735 -0.263172 -0.363289
vn -0.964580 -0.263518 -0.011955
vn -0.894854 -0.263656 0.360169
vn -0.922305 -0.104805 -0.371980
vn -0.994370 -0.105265 -0.012179
vn -0.923875 -0.105208 0.367949
vn -0.916883 0.140342 -0.373671
vn -0.990035 0.140285 -0.012316
vn -0.918804 0.134889 0.370951
vn 0.407156 0.363920 -0.837727
vn 0.665430 0.344426 -0.662249
vn 0.861657 0.373461 -0.343619
vn 0.050280 0.375931 -0.925283
vn -0.342384 0.370986 -0.863216
vn -0.647844 0.352775 -0.675166
vn -0.854013 0.366012 -0.369726
vn 0.930009 0.367360 0.011425
vn -0.927461 0.373656 0.014042
vn 0.864788 0.361570 0.348437
vn -0.836126 0.369701 0.405234
vn 0.692274 0.362988 0.623696
vn 0.334977 0.393284 0.856223
vn -0.029195 0.363485 0.931143
vn -0.346608 0.367913 0.862846
vn -0.633405 0.342149 0.694069
s 1
usemtl soperocereal:defaultMat
f 96/1/1 97/2/2 7/3/3 6/4/4
f 97/2/2 98/5/5 8/6/6 7/3/3
f 98/5/5 99/7/7 9/8/8 8/6/6
f 99/7/7 100/9/9 10/10/10 9/8/8
f 6/4/4 7/3/3 12/11/11 11/12/12
f 7/3/3 8/6/6 13/13/13 12/11/11
f 8/6/6 9/8/8 14/14/14 13/13/13
f 9/8/8 10/10/10 15/15/15 14/14/14
f 11/12/12 12/11/11 17/16/16 16/17/17
f 12/11/11 13/13/13 18/18/18 17/16/16
f 13/13/13 14/14/14 19/19/19 18/18/18
f 14/14/14 15/15/15 20/20/20 19/19/19
f 16/17/17 17/16/16 22/21/21 21/22/22
f 17/16/16 18/18/18 23/23/23 22/21/21
f 18/18/18 19/19/19 24/24/24 23/23/23
f 19/19/19 20/20/20 25/25/25 24/24/24
f 122/26/26 123/27/27 124/28/28 125/29/29
f 123/27/27 126/30/30 127/31/31 124/28/28
f 126/30/30 128/32/32 129/33/33 127/31/31
f 128/32/32 130/34/34 131/35/35 129/33/33
f 125/29/29 124/28/28 132/36/36 133/37/37
f 124/28/28 127/31/31 134/38/38 132/36/36
f 127/31/31 129/33/33 135/39/39 134/38/38
f 129/33/33 131/35/35 136/40/40 135/39/39
f 133/37/37 132/36/36 137/41/41 138/42/42
f 132/36/36 134/38/38 139/43/43 137/41/41
f 134/38/38 135/39/39 140/44/44 139/43/43
f 135/39/39 136/40/40 141/45/45 140/44/44
f 138/42/42 137/41/41 142/46/46 143/47/47
f 137/41/41 139/43/43 144/48/48 142/46/46
f 139/43/43 140/44/44 145/49/49 144/48/48
f 140/44/44 141/45/45 146/50/50 145/49/49
f 32/51/51 33/52/52 38/53/53 37/54/54
f 33/52/52 34/55/55 39/56/56 38/53/53
f 34/55/55 35/57/57 40/58/58 39/56/56
f 35/57/57 36/59/59 41/60/60 40/58/58
f 37/54/54 38/53/53 43/61/61 42/62/62
f 38/53/53 39/56/56 44/63/63 43/61/61
f 39/56/56 40/58/58 45/64/64 44/63/63
f 40/58/58 41/60/60 46/65/65 45/64/64
f 42/62/62 43/61/61 48/66/66 47/67/67
f 43/61/61 44/63/63 49/68/68 48/66/66
f 44/63/63 45/64/64 50/69/69 49/68/68
f 45/64/64 46/65/65 51/70/70 50/69/69
f 47/67/67 48/66/66 91/71/71 92/72/72
f 48/66/66 49/68/68 90/73/73 91/71/71
f 49/68/68 50/69/69 105/74/74 90/73/73
f 50/69/69 51/70/70 104/75/75 105/74/74
f 52/76/76 53/77/77 58/78/78 57/79/79
f 53/77/77 54/80/80 59/81/81 58/78/78
f 54/80/80 55/82/82 60/83/83 59/81/81
f 55/82/82 56/84/84 61/85/85 60/83/83
f 57/79/79 58/78/78 63/86/86 62/87/87
f 58/78/78 59/81/81 64/88/88 63/86/86
f 59/81/81 60/83/83 65/89/89 64/88/88
f 60/83/83 61/85/85 66/90/90 65/89/89
f 62/87/87 63/86/86 68/91/91 67/92/92
f 63/86/86 64/88/88 69/93/93 68/91/91
f 64/88/88 65/89/89 70/94/94 69/93/93
f 65/89/89 66/90/90 71/95/95 70/94/94
f 67/92/92 68/91/91 2/96/96 1/97/97
f 68/91/91 69/93/93 3/98/98 2/96/96
f 69/93/93 70/94/94 4/99/99 3/98/98
f 70/94/94 71/95/95 5/100/100 4/99/99
f 103/101/101 104/75/75 51/70/70 72/102/102
f 102/103/103 103/101/101 72/102/102 73/104/104
f 101/105/105 102/103/103 73/104/104 74/106/106
f 100/9/9 101/105/105 74/106/106 10/10/10
f 72/102/102 51/70/70 46/65/65 75/107/107
f 73/104/104 72/102/102 75/107/107 76/108/108
f 74/106/106 73/104/104 76/108/108 77/109/109
f 10/10/10 74/106/106 77/109/109 15/15/15
f 75/107/107 46/65/65 41/60/60 78/110/110
f 76/108/108 75/107/107 78/110/110 79/111/111
f 77/109/109 76/108/108 79/111/111 80/112/112
f 15/15/15 77/109/109 80/112/112 20/20/20
f 78/110/110 41/60/60 36/59/59 31/113/113
f 79/111/111 78/110/110 31/113/113 29/114/114
f 80/112/112 79/111/111 29/114/114 27/115/115
f 20/20/20 80/112/112 27/115/115 25/25/25
f 92/72/72 93/116/116 81/117/117 47/67/67
f 93/116/116 94/118/118 82/119/119 81/117/117
f 94/118/118 95/120/120 83/121/121 82/119/119
f 95/120/120 96/1/1 6/4/4 83/121/121
f 47/67/67 81/117/117 84/122/122 42/62/62
f 81/117/117 82/119/119 85/123/123 84/122/122
f 82/119/119 83/121/121 86/124/124 85/123/123
f 83/121/121 6/4/4 11/12/12 86/124/124
f 42/62/62 84/122/122 87/125/125 37/54/54
f 84/122/122 85/123/123 88/126/126 87/125/125
f 85/123/123 86/124/124 89/127/127 88/126/126
f 86/124/124 11/12/12 16/17/17 89/127/127
f 37/54/54 87/125/125 30/128/128 32/51/51
f 87/125/125 88/126/126 28/129/129 30/128/128
f 88/126/126 89/127/127 26/130/130 28/129/129
f 89/127/127 16/17/17 21/22/22 26/130/130
f 91/71/71 90/73/73 54/80/80 53/77/77
f 92/72/72 91/71/71 53/77/77 52/76/76
f 52/76/76 57/79/79 93/116/116 92/72/72
f 57/79/79 62/87/87 94/118/118 93/116/116
f 62/87/87 67/92/92 95/120/120 94/118/118
f 67/92/92 1/97/97 96/1/1 95/120/120
f 1/97/97 2/96/96 97/2/2 96/1/1
f 2/96/96 3/98/98 98/5/5 97/2/2
f 3/98/98 4/99/99 99/7/7 98/5/5
f 4/99/99 5/100/100 100/9/9 99/7/7
f 5/100/100 71/95/95 101/105/105 100/9/9
f 71/95/95 66/90/90 102/103/103 101/105/105
f 66/90/90 61/85/85 103/101/101 102/103/103
f 61/85/85 56/84/84 104/75/75 103/101/101
f 105/74/74 104/75/75 56/84/84 55/82/82
f 90/73/73 105/74/74 55/82/82 54/80/80
f 21/22/22 22/21/21 107/131/131 106/132/132
f 26/130/130 21/22/22 106/132/132 108/133/133
f 22/21/21 23/23/23 109/134/134 107/131/131
f 23/23/23 24/24/24 110/135/135 109/134/134
f 24/24/24 25/25/25 111/136/136 110/135/135
f 25/25/25 27/115/115 112/137/137 111/136/136
f 28/129/129 26/130/130 108/133/133 113/138/138
f 27/115/115 29/139/114 114/140/139 112/137/137
f 30/128/128 28/129/129 113/138/138 115/141/140
f 29/139/114 31/142/113 116/143/141 114/140/139
f 33/52/52 32/51/51 118/144/142 117/145/143
f 32/51/51 30/128/128 115/141/140 118/144/142
f 34/55/55 33/52/52 117/145/143 119/146/144
f 35/57/57 34/55/55 119/146/144 120/147/145
f 31/142/113 36/148/59 121/149/146 116/143/141
f 36/148/59 35/57/57 120/147/145 121/149/146
f 106/132/132 107/131/131 123/27/27 122/26/26
f 108/133/133 106/132/132 122/26/26 125/29/29
f 107/131/131 109/134/134 126/30/30 123/27/27
f 109/134/134 110/135/135 128/32/32 126/30/30
f 110/135/135 111/136/136 130/34/34 128/32/32
f 111/136/136 112/137/137 131/35/35 130/34/34
f 113/138/138 108/133/133 125/29/29 133/37/37
f 112/137/137 114/140/139 136/40/40 131/35/35
f 115/141/140 113/138/138 133/37/37 138/42/42
f 114/140/139 116/143/141 141/45/45 136/40/40
f 117/145/143 118/144/142 143/47/47 142/46/46
f 118/144/142 115/141/140 138/42/42 143/47/47
f 119/146/144 117/145/143 142/46/46 144/48/48
f 120/147/145 119/146/144 144/48/48 145/49/49
f 116/143/141 121/149/146 146/50/50 141/45/45
f 121/149/146 120/147/145 145/49/49 146/50/50
