# This file uses centimeters as units for non-parametric coordinates.

mtllib amaranto.mtl
v -77.738862 -38.788990 201.691084
v 77.738891 -38.788990 201.691084
v -77.738862 38.788952 201.691084
v 77.738891 38.788952 201.691084
v -77.738862 38.788952 -205.691076
v 77.738891 38.788952 -205.691076
v -77.738862 -38.788990 -205.691076
v 77.738891 -38.788990 -205.691076
vt 0.488930 0.256160
vt 0.511930 0.078030
vt 0.490380 0.076200
vt 0.466240 0.253780
vt 0.033770 0.001950
vt 0.001950 0.175980
vt 0.972160 0.317760
vt 0.998040 0.144690
vt 0.976160 0.139770
vt 0.950360 0.314730
vt 0.979220 0.117830
vt 0.516350 0.056180
vt 0.488100 0.278390
vt 0.948100 0.336810
vn 0.000000 0.000000 1.000000
vn 0.000000 0.000000 1.000000
vn 0.000000 0.000000 1.000000
vn 0.000000 0.000000 1.000000
vn 0.000000 1.000000 0.000000
vn 0.000000 1.000000 0.000000
vn 0.000000 1.000000 0.000000
vn 0.000000 1.000000 0.000000
vn 0.000000 0.000000 -1.000000
vn 0.000000 0.000000 -1.000000
vn 0.000000 0.000000 -1.000000
vn 0.000000 0.000000 -1.000000
vn 0.000000 -1.000000 0.000000
vn 0.000000 -1.000000 0.000000
vn 0.000000 -1.000000 0.000000
vn 0.000000 -1.000000 0.000000
vn 1.000000 0.000000 0.000000
vn 1.000000 0.000000 0.000000
vn 1.000000 0.000000 0.000000
vn 1.000000 0.000000 0.000000
vn -1.000000 0.000000 0.000000
vn -1.000000 0.000000 0.000000
vn -1.000000 0.000000 0.000000
vn -1.000000 0.000000 0.000000
s off
usemtl amraranto:defaultMat
f 1/1/1 2/2/2 4/3/3 3/4/4
f 3/4/5 4/3/6 6/5/7 5/6/8
f 5/7/9 6/8/10 8/9/11 7/10/12
f 7/10/13 8/9/14 2/2/15 1/1/16
f 2/2/17 8/9/18 6/11/19 4/12/20
f 7/10/21 1/1/22 3/13/23 5/14/24
