# This file uses centimeters as units for non-parametric coordinates.

mtllib droritos.mtl
v 15.212179 -344.924866 -113.034866
v 8.215590 -344.924866 -148.255630
v -1.341797 -344.924866 -161.147415
v -10.899183 -344.924866 -148.255630
v -17.895676 -344.924866 -113.034866
v -20.456572 -344.924866 -64.922432
v -17.895676 -344.924866 -16.810001
v -10.899183 -344.924866 18.410753
v -1.341797 -344.924866 31.302431
v 8.215590 -344.924866 18.410753
v 15.212179 -344.924866 -16.810001
v 17.772976 -344.924866 -64.922432
v 91.413582 -244.012802 -161.147415
v 19.984673 -344.924866 -231.588913
v -1.341797 -298.703949 -257.372284
v -22.668270 -344.924866 -231.588913
v -94.097168 -244.012802 -161.147415
v -108.446457 -244.012802 -64.922432
v -94.097168 -244.012802 31.302431
v -22.668270 -344.924866 101.744034
v -1.341797 -298.703949 127.527428
v 19.984673 -344.924866 101.744034
v 91.413582 -244.012802 31.302431
v 105.762970 -244.012802 -64.922432
v 97.557869 -92.744530 -209.259857
v 95.795876 -258.585419 -229.380112
v -1.341797 -298.703949 -254.821777
v -98.479477 -258.585419 -229.380112
v -100.241455 -92.744530 -209.259857
v -148.594406 -92.744530 -64.922432
v -128.866226 -92.744530 79.414970
v -98.479477 -258.585419 99.535141
v -1.341797 -298.703949 124.976913
v 95.795876 -258.585419 99.535141
v 126.182640 -92.744530 79.414970
v 145.910904 -92.744530 -64.922432
v 54.610126 144.352173 -209.259857
v 12.042685 204.203674 -229.380112
v -1.341797 251.229904 -254.821777
v -14.726279 204.203674 -229.380112
v -57.293625 144.352173 -209.259857
v -65.949509 144.352173 -64.922432
v -57.293625 144.352173 79.414970
v -14.726279 204.203674 99.535141
v -1.341797 251.229904 124.976913
v 12.042685 204.203674 99.535141
v 54.610126 144.352173 79.414970
v 63.265915 144.352173 -64.922432
v 14.113281 204.203674 -161.147415
v 10.869486 251.229904 -231.588913
v -1.341797 251.229904 -257.372284
v -13.553082 251.229904 -231.588913
v -16.796776 204.203674 -161.147415
v -19.187773 204.203674 -64.922432
v -16.796776 204.203674 31.302431
v -13.553082 251.229904 101.744034
v -1.341797 251.229904 127.527428
v 10.869486 251.229904 101.744034
v 14.113281 204.203674 31.302431
v 16.504177 204.203674 -64.922432
v 9.233488 251.229904 -113.034866
v 4.763894 251.229904 -148.255630
v -1.341797 251.229904 -161.147415
v -7.447389 251.229904 -148.255630
v -11.917084 251.229904 -113.034866
v -13.553082 251.229904 -64.922432
v -11.917084 251.229904 -16.810001
v -7.447389 251.229904 18.410753
v -1.341797 251.229904 31.302431
v 4.763894 251.229904 18.410753
v 9.233488 251.229904 -16.810001
v 10.869486 251.229904 -64.922432
v -1.341797 -298.703949 -64.922432
v -1.341797 251.229904 -64.922432
vt 0.624030 0.705140
vt 0.672760 0.717680
vt 0.785200 0.704010
vt 0.732200 0.592210
vt 0.692670 0.728470
vt 0.862100 0.712100
vt 0.295950 0.741290
vt 0.315740 0.727700
vt 0.205070 0.711990
vt 0.104690 0.710880
vt 0.366200 0.709390
vt 0.249480 0.591190
vt 0.422370 0.684980
vt 0.321410 0.560050
vt 0.461610 0.655820
vt 0.382600 0.528750
vt 0.480320 0.631060
vt 0.476760 0.565780
vt 0.494670 0.621480
vt 0.494670 0.530240
vt 0.508680 0.631330
vt 0.526560 0.574760
vt 0.530890 0.654890
vt 0.600300 0.516920
vt 0.568350 0.683800
vt 0.660260 0.556380
vt 0.793630 0.621790
vt 0.820510 0.441370
vt 0.862680 0.707420
vt 0.162380 0.627970
vt 0.099720 0.708490
vt 0.155460 0.448380
vt 0.273210 0.400890
vt 0.381350 0.360480
vt 0.419100 0.498310
vt 0.494670 0.527890
vt 0.553960 0.477220
vt 0.604950 0.353010
vt 0.709460 0.395290
vt 0.955750 0.136910
vt 0.896120 0.190700
vt 0.998040 0.096030
vt 0.042420 0.140610
vt 0.004930 0.093810
vt 0.096040 0.198800
vt 0.249290 0.153120
vt 0.413850 0.123640
vt 0.460910 0.059140
vt 0.494670 0.013130
vt 0.527400 0.060380
vt 0.572170 0.124740
vt 0.740120 0.145490
vt 0.960890 0.090550
vt 0.863070 0.100470
vt 0.996850 0.093020
vt 0.033830 0.093760
vt 0.001950 0.092380
vt 0.124820 0.112470
vt 0.234820 0.077780
vt 0.353850 0.057400
vt 0.453510 0.017340
vt 0.494670 0.010150
vt 0.529540 0.019010
vt 0.624960 0.060260
vt 0.747620 0.070110
vt 0.863600 0.047990
vt 0.817200 0.037510
vt 0.881950 0.047440
vt 0.124710 0.056440
vt 0.107780 0.055580
vt 0.166330 0.047340
vt 0.223130 0.030130
vt 0.286580 0.019580
vt 0.334380 0.009560
vt 0.351700 0.001950
vt 0.643740 0.011180
vt 0.626240 0.005100
vt 0.691850 0.015860
vt 0.755660 0.021060
vt 0.494670 0.720480
vt 0.758590 0.007740
vt 0.219210 0.017660
vn 0.639487 -0.768636 -0.015966
vn 0.582710 -0.810335 0.061701
vn 0.628268 -0.743462 -0.229224
vn 0.933163 -0.344466 -0.102716
vn 0.000000 -0.979330 -0.202268
vn 0.000000 -0.515103 -0.857128
vn -0.582710 -0.810334 0.061701
vn -0.628268 -0.743462 -0.229224
vn -0.639487 -0.768636 -0.015966
vn -0.933163 -0.344466 -0.102716
vn -0.595058 -0.803683 0.000000
vn -0.929072 -0.367681 -0.040445
vn -0.639487 -0.768636 0.015966
vn -0.914546 -0.402858 0.036201
vn -0.582711 -0.810334 -0.061701
vn -0.613658 -0.759213 0.216838
vn 0.000000 -0.979331 0.202267
vn 0.000000 -0.515103 0.857128
vn 0.582710 -0.810335 -0.061701
vn 0.613658 -0.759213 0.216838
vn 0.639487 -0.768636 0.015966
vn 0.914546 -0.402858 0.036201
vn 0.595058 -0.803683 0.000000
vn 0.929072 -0.367681 -0.040445
vn 0.667121 -0.070036 -0.741650
vn 0.897849 0.110647 -0.426174
vn -0.000000 -0.006112 -0.999981
vn -0.667121 -0.070036 -0.741650
vn -0.897850 0.110647 -0.426173
vn -0.992685 0.110051 -0.049658
vn -0.878847 0.122718 0.461052
vn -0.662583 -0.102931 0.741882
vn -0.000000 -0.006112 0.999981
vn 0.662583 -0.102931 0.741882
vn 0.878846 0.122718 0.461053
vn 0.992685 0.110051 -0.049658
vn 0.507060 0.076966 -0.858468
vn 0.868730 0.255534 -0.424276
vn -0.000000 0.034836 -0.999393
vn -0.507060 0.076966 -0.858468
vn -0.868730 0.255534 -0.424275
vn -0.936754 0.347852 -0.038611
vn -0.814941 0.278372 0.508311
vn -0.493564 0.076452 0.866343
vn -0.000000 0.034836 0.999393
vn 0.493564 0.076452 0.866343
vn 0.814941 0.278372 0.508311
vn 0.936754 0.347852 -0.038611
vn 0.828890 0.554230 -0.075969
vn 0.884145 0.466414 -0.027309
vn 0.000000 0.949172 -0.314758
vn -0.828891 0.554229 -0.075968
vn -0.884145 0.466414 -0.027309
vn -0.876251 0.481855 0.000000
vn -0.884145 0.466414 0.027309
vn -0.828890 0.554229 0.075968
vn 0.000000 0.949172 0.314759
vn 0.828890 0.554230 0.075969
vn 0.884145 0.466414 0.027309
vn 0.876251 0.481855 -0.000000
vn 0.910887 0.412464 0.012570
vn 0.953350 0.301333 -0.017963
vn 0.000000 1.000000 -0.000000
vn -0.910887 0.412464 0.012570
vn -0.953350 0.301332 -0.017964
vn -0.959137 0.282943 0.000000
vn -0.953350 0.301332 0.017964
vn -0.910887 0.412464 -0.012570
vn 0.000000 1.000000 0.000000
vn 0.910887 0.412464 -0.012570
vn 0.953350 0.301333 0.017963
vn 0.959137 0.282943 0.000000
vn -0.000000 -1.000000 0.000000
vn 0.000000 1.000000 0.000000
s 1
usemtl bolsaPapas:defaultMat
f 1/1/1 2/2/2 14/3/3 13/4/4
f 2/2/2 3/5/5 15/6/6 14/3/3
f 3/7/5 4/8/7 16/9/8 15/10/6
f 4/8/7 5/11/9 17/12/10 16/9/8
f 5/11/9 6/13/11 18/14/12 17/12/10
f 6/13/11 7/15/13 19/16/14 18/14/12
f 7/15/13 8/17/15 20/18/16 19/16/14
f 8/17/15 9/19/17 21/20/18 20/18/16
f 9/19/17 10/21/19 22/22/20 21/20/18
f 10/21/19 11/23/21 23/24/22 22/22/20
f 11/23/21 12/25/23 24/26/24 23/24/22
f 12/25/23 1/1/1 13/4/4 24/26/24
f 13/4/4 14/3/3 26/27/25 25/28/26
f 14/3/3 15/6/6 27/29/27 26/27/25
f 15/10/6 16/9/8 28/30/28 27/31/27
f 16/9/8 17/12/10 29/32/29 28/30/28
f 17/12/10 18/14/12 30/33/30 29/32/29
f 18/14/12 19/16/14 31/34/31 30/33/30
f 19/16/14 20/18/16 32/35/32 31/34/31
f 20/18/16 21/20/18 33/36/33 32/35/32
f 21/20/18 22/22/20 34/37/34 33/36/33
f 22/22/20 23/24/22 35/38/35 34/37/34
f 23/24/22 24/26/24 36/39/36 35/38/35
f 24/26/24 13/4/4 25/28/26 36/39/36
f 25/28/26 26/27/25 38/40/37 37/41/38
f 26/27/25 27/29/27 39/42/39 38/40/37
f 27/31/27 28/30/28 40/43/40 39/44/39
f 28/30/28 29/32/29 41/45/41 40/43/40
f 29/32/29 30/33/30 42/46/42 41/45/41
f 30/33/30 31/34/31 43/47/43 42/46/42
f 31/34/31 32/35/32 44/48/44 43/47/43
f 32/35/32 33/36/33 45/49/45 44/48/44
f 33/36/33 34/37/34 46/50/46 45/49/45
f 34/37/34 35/38/35 47/51/47 46/50/46
f 35/38/35 36/39/36 48/52/48 47/51/47
f 36/39/36 25/28/26 37/41/38 48/52/48
f 37/41/38 38/40/37 50/53/49 49/54/50
f 38/40/37 39/42/39 51/55/51 50/53/49
f 39/44/39 40/43/40 52/56/52 51/57/51
f 40/43/40 41/45/41 53/58/53 52/56/52
f 41/45/41 42/46/42 54/59/54 53/58/53
f 42/46/42 43/47/43 55/60/55 54/59/54
f 43/47/43 44/48/44 56/61/56 55/60/55
f 44/48/44 45/49/45 57/62/57 56/61/56
f 45/49/45 46/50/46 58/63/58 57/62/57
f 46/50/46 47/51/47 59/64/59 58/63/58
f 47/51/47 48/52/48 60/65/60 59/64/59
f 48/52/48 37/41/38 49/54/50 60/65/60
f 49/54/50 50/53/49 62/66/61 61/67/62
f 50/53/49 51/55/51 63/68/63 62/66/61
f 51/57/51 52/56/52 64/69/64 63/70/63
f 52/56/52 53/58/53 65/71/65 64/69/64
f 53/58/53 54/59/54 66/72/66 65/71/65
f 54/59/54 55/60/55 67/73/67 66/72/66
f 55/60/55 56/61/56 68/74/68 67/73/67
f 56/61/56 57/62/57 69/75/69 68/74/68
f 57/62/57 58/63/58 70/76/70 69/77/69
f 58/63/58 59/64/59 71/78/71 70/76/70
f 59/64/59 60/65/60 72/79/72 71/78/71
f 60/65/60 49/54/50 61/67/62 72/79/72
f 2/2/2 1/1/1 73/80/73 3/5/5
f 4/8/7 3/7/5 73/80/73 5/11/9
f 6/13/11 5/11/9 73/80/73 7/15/13
f 8/17/15 7/15/13 73/80/73 9/19/17
f 10/21/19 9/19/17 73/80/73 11/23/21
f 12/25/23 11/23/21 73/80/73 1/1/1
f 74/81/74 61/67/62 62/66/61 63/68/63
f 74/82/74 63/70/63 64/69/64 65/71/65
f 74/82/74 65/71/65 66/72/66 67/73/67
f 74/82/74 67/73/67 68/74/68 69/75/69
f 74/81/74 69/77/69 70/76/70 71/78/71
f 74/81/74 71/78/71 72/79/72 61/67/62
