# This file uses centimeters as units for non-parametric coordinates.

mtllib glucositas.mtl
v -441.203857 1.459794 -235.848923
v -227.789185 1.468595 -235.848923
v -1.397352 1.468595 -235.848923
v 220.818878 -1.314986 -235.848923
v 441.554657 -1.175993 -235.848923
v -450.005432 541.752075 -235.848923
v -225.005493 541.752075 -235.848923
v -0.005552 541.752075 -235.848923
v 224.994385 541.752075 -235.848923
v 449.994324 541.752075 -235.848923
v -450.005432 1075.076416 -235.848923
v -225.005493 1075.076416 -235.848923
v -0.005552 1075.076416 -235.848923
v 224.994385 1075.076416 -235.848923
v 449.994324 1075.076416 -235.848923
v 449.994324 1075.076416 -317.920197
v -450.005432 1075.076416 -399.991577
v -225.005493 1075.076416 -399.991577
v -0.005552 1075.076416 -399.991577
v 224.994385 1075.076416 -399.991577
v 449.994324 1075.076416 -399.991577
v -450.005432 1075.076416 -482.062958
v -450.005432 1075.076416 -564.134277
v -225.005493 1075.076416 -564.134277
v -0.005552 1075.076416 -564.134277
v 224.994385 1075.076416 -564.134277
v 449.994324 1075.076416 -564.134277
v -450.005432 541.752075 -564.134277
v -225.005493 541.752075 -564.134277
v -0.005552 541.752075 -564.134277
v 224.994385 541.752075 -564.134277
v 449.994324 541.752075 -564.134277
v -441.203857 1.459794 -564.134277
v -225.005493 8.427679 -564.134277
v -0.005552 8.427679 -564.134277
v 220.818878 -1.314986 -564.134277
v 441.554657 -1.175993 -564.134277
v -441.203857 1.459794 -399.991577
v -227.789185 1.468595 -399.991577
v -1.397352 1.468595 -399.991577
v 220.818878 -1.314986 -399.991577
v 441.554657 -1.175993 -399.991577
v 449.994324 541.752075 -399.991577
v -450.005432 541.752075 -399.991577
v 220.818878 18.982504 -235.848923
v -1.397352 21.766199 -235.848923
v -227.789185 21.766199 -235.848923
v -443.587646 22.674181 -235.848923
v -443.587646 22.674181 -399.991577
v -443.587646 22.674181 -564.134277
v -225.005493 28.725172 -564.134277
v -0.005552 28.725172 -564.134277
v 220.818878 18.982504 -564.134277
v 444.173828 24.359875 -564.134277
v 444.173828 24.359875 -399.991577
v 444.173828 24.359875 -235.848923
v 224.994385 1075.076416 -564.134277
v 449.994324 1075.076416 -564.134277
v -461.476013 1234.046021 -670.610107
v -236.476105 1234.046021 -670.610107
v -11.476148 1234.046021 -670.610107
v 213.523788 1234.046021 -670.610107
v 438.523743 1234.046021 -670.610107
v -514.924927 1236.922119 -235.848923
v -514.924927 1236.922119 -399.991577
v -514.924927 1236.922119 -564.134277
v -450.005432 1232.537231 -173.736145
v -225.005493 1232.537231 -173.736145
v 224.994385 1232.537231 -173.736145
v 449.994324 1232.537231 -173.736145
v 603.783203 1205.124878 -235.848923
v 603.783203 1205.124878 -399.991577
v 603.783203 1205.124878 -564.134277
v -236.476105 1266.022217 -692.027466
v -11.476148 1266.022217 -692.027466
v 213.523788 1266.022217 -692.027466
v 449.994324 1183.947998 -192.902847
v 224.994385 1183.947998 -192.902847
v -0.005552 1183.947998 -192.902847
v -225.005493 1183.947998 -192.902847
v -450.005432 1183.947998 -192.902847
vt 0.536570 0.254180
vt 0.541910 0.316260
vt 0.549990 0.316230
vt 0.542120 0.252140
vt 0.551910 0.390390
vt 0.560200 0.388910
vt 0.569260 0.462910
vt 0.576660 0.460120
vt 0.583570 0.527080
vt 0.590430 0.527020
vt 0.738920 0.269220
vt 0.712570 0.186290
vt 0.756410 0.352440
vt 0.768940 0.435510
vt 0.774410 0.521190
vt 0.935660 0.223110
vt 0.908920 0.130330
vt 0.953270 0.319550
vt 0.959040 0.418010
vt 0.952990 0.513430
vt 0.459320 0.787690
vt 0.456910 0.851450
vt 0.543990 0.855510
vt 0.548360 0.792970
vt 0.370280 0.786900
vt 0.370040 0.851030
vt 0.282430 0.786990
vt 0.283150 0.851170
vt 0.195950 0.819450
vt 0.195700 0.850690
vt 0.194630 0.787990
vt 0.456340 0.915480
vt 0.542180 0.918310
vt 0.543200 0.886900
vt 0.369800 0.915120
vt 0.282090 0.915070
vt 0.194090 0.913430
vt 0.963910 0.909680
vt 0.757290 0.893390
vt 0.750450 0.980020
vt 0.952460 0.998040
vt 0.973470 0.819140
vt 0.762340 0.807750
vt 0.983180 0.726510
vt 0.765890 0.723210
vt 0.771880 0.641110
vt 0.991010 0.631320
vt 0.548540 0.887430
vt 0.544850 0.970500
vt 0.553020 0.970920
vt 0.556420 0.887110
vt 0.550210 0.800630
vt 0.558090 0.800490
vt 0.546510 0.715150
vt 0.554400 0.714930
vt 0.541380 0.622100
vt 0.553600 0.627040
vt 0.420020 0.296570
vt 0.479850 0.308490
vt 0.500490 0.221650
vt 0.457500 0.184940
vt 0.424870 0.410940
vt 0.487220 0.401600
vt 0.455490 0.522210
vt 0.511050 0.490540
vt 0.562900 0.569690
vt 0.572400 0.574830
vt 0.775500 0.582780
vt 0.998040 0.558480
vt 0.975520 0.535960
vt 0.505690 0.214730
vt 0.464840 0.173480
vt 0.686620 0.129040
vt 0.659230 0.072590
vt 0.885190 0.066190
vt 0.872830 0.035500
vt 0.860470 0.005610
vt 0.183400 0.001950
vt 0.183400 0.176630
vt 0.543400 0.686830
vt 0.498090 0.615550
vt 0.435240 0.656470
vt 0.485400 0.731020
vt 0.459370 0.538720
vt 0.395610 0.577260
vt 0.418420 0.460590
vt 0.355080 0.500390
vt 0.372500 0.384550
vt 0.312110 0.426270
vt 0.282840 0.377000
vt 0.281240 0.382700
vt 0.285670 0.387130
vt 0.291370 0.385530
vt 0.288540 0.375400
vt 0.292920 0.382890
vt 0.292970 0.379830
vt 0.232100 0.489800
vt 0.296010 0.540690
vt 0.330150 0.510670
vt 0.258610 0.455660
vt 0.339880 0.610000
vt 0.380020 0.588450
vt 0.373810 0.686810
vt 0.417430 0.670940
vt 0.398140 0.770370
vt 0.439620 0.755500
vt 0.357700 0.383020
vt 0.421710 0.380390
vt 0.418590 0.302830
vt 0.387080 0.303570
vt 0.355250 0.304270
vt 0.294720 0.384880
vt 0.290940 0.307860
vt 0.382260 0.583860
vt 0.421400 0.662450
vt 0.342110 0.507700
vt 0.458870 0.751950
vt 0.438300 0.668870
vt 0.340730 0.493150
vt 0.270210 0.439270
vt 0.183400 0.176630
vt 0.183400 0.001950
vn -0.096928 -0.986384 0.132857
vn 0.000020 -0.992235 0.124377
vn 0.000000 0.000000 1.000000
vn -0.594842 -0.009690 0.803784
vn -0.006158 -0.992363 0.123198
vn 0.000000 0.000000 1.000000
vn -0.005919 -0.991453 0.130326
vn 0.000000 0.000000 1.000000
vn 0.112988 -0.982922 0.145254
vn 0.583970 -0.009078 0.811724
vn 0.000000 0.000000 1.000000
vn -0.594572 -0.003626 0.804034
vn 0.000000 0.000000 1.000000
vn 0.000000 0.000000 1.000000
vn 0.590450 -0.003271 0.807067
vn 0.000000 0.000000 1.000000
vn -0.589360 0.000000 0.807870
vn 0.000000 0.000000 1.000000
vn 0.000000 0.000000 1.000000
vn 0.589360 0.000000 0.807870
vn 0.000000 1.000000 0.000000
vn 0.000000 1.000000 0.000000
vn 0.000000 1.000000 0.000000
vn 0.000000 1.000000 0.000000
vn 0.000000 1.000000 0.000000
vn 0.000000 1.000000 0.000000
vn 0.000000 1.000000 0.000000
vn 0.000000 1.000000 0.000000
vn 0.000000 1.000000 0.000000
vn 0.000000 1.000000 0.000000
vn 0.000000 1.000000 0.000000
vn 0.000000 1.000000 0.000000
vn 0.000000 1.000000 0.000000
vn 0.000000 1.000000 0.000000
vn 0.000000 1.000000 0.000000
vn 0.000000 1.000000 0.000000
vn 0.000000 1.000000 0.000000
vn 0.000000 0.000000 -1.000000
vn 0.000000 0.000000 -1.000000
vn -0.594634 -0.003626 -0.803988
vn -0.589360 0.000000 -0.807870
vn 0.000000 0.000000 -1.000000
vn 0.000000 0.000000 -1.000000
vn 0.000000 0.000000 -1.000000
vn 0.000000 0.000000 -1.000000
vn 0.590451 -0.003271 -0.807067
vn 0.589360 0.000000 -0.807870
vn 0.007731 -0.987551 -0.157106
vn -0.080403 -0.985142 -0.151756
vn -0.601988 -0.009807 -0.798445
vn 0.000000 0.000000 -1.000000
vn -0.013901 -0.987808 -0.155058
vn 0.000000 0.000000 -1.000000
vn -0.013711 -0.990152 -0.139322
vn 0.000000 0.000000 -1.000000
vn 0.112988 -0.982922 -0.145254
vn 0.583970 -0.009078 -0.811724
vn 0.004015 -0.999865 -0.015947
vn -0.089548 -0.995928 -0.010406
vn -0.010061 -0.999822 -0.015979
vn -0.009905 -0.999937 -0.005334
vn 0.114199 -0.993458 0.000000
vn 0.999879 -0.015543 0.000000
vn 0.999985 -0.005539 0.000000
vn 1.000000 0.000000 0.000000
vn 0.000000 1.000000 0.000000
vn -0.999867 -0.016288 0.000000
vn -0.999981 -0.006098 0.000000
vn -1.000000 0.000000 0.000000
vn -1.000000 0.000000 0.000000
vn 0.000000 0.000000 0.000000
vn 0.000000 0.000000 0.000000
vn 0.000000 0.000000 0.000000
vn 0.000000 0.000000 0.000000
vn 0.000000 0.556494 0.830852
vn 0.000000 0.556494 0.830852
vn 0.000000 0.556494 0.830852
vn 0.000000 0.556494 0.830852
vn 0.000000 0.556494 0.830852
vn 0.000000 0.556494 0.830851
vn 0.000000 0.556494 0.830852
vn 0.000000 0.556494 0.830852
vn 0.000000 0.556494 0.830852
vn 0.000000 0.556494 0.830852
vn 0.928118 0.372286 0.000000
vn 0.928118 0.372286 0.000000
vn 0.928118 0.372286 0.000000
vn 0.928118 0.372286 0.000000
vn 0.928118 0.372286 0.000000
vn 0.928118 0.372286 0.000000
vn 0.928118 0.372286 0.000000
vn 0.000000 -0.366948 0.930241
vn 0.000000 -0.366948 0.930241
vn 0.000000 -0.366948 0.930242
vn 0.000000 -0.366948 0.930242
vn 0.000000 -0.366948 0.930241
vn 0.000000 -0.366948 0.930241
vn 0.000000 -0.366948 0.930241
vn 0.000000 -0.366948 0.930242
vn 0.000000 -0.366948 0.930241
vn 0.000000 -0.366948 0.930242
vn 0.645709 -0.763583 0.000000
vn 0.645709 -0.763584 0.000000
vn 0.645709 -0.763584 0.000000
vn 0.645709 -0.763584 0.000000
vn 0.645709 -0.763583 0.000000
vn 0.645709 -0.763583 0.000000
vn 0.645709 -0.763583 0.000000
vn 0.000000 0.556497 0.830850
vn 0.000000 0.556497 0.830850
vn 0.000000 0.556497 0.830850
vn 0.000000 -0.366946 0.930242
vn 0.000000 -0.366946 0.930242
vn 0.000000 -0.366946 0.930242
vn 0.000000 -0.366946 0.930242
s 1
usemtl cajaCereal:defaultMat
f 1/1/1 2/2/2 47/3/3 48/4/4
f 2/2/2 3/5/5 46/6/6 47/3/3
f 3/5/5 4/7/7 45/8/8 46/6/6
f 45/8/8 4/7/7 5/9/9 56/10/10
f 7/11/11 6/12/12 48/4/4 47/3/3
f 8/13/13 7/11/11 47/3/3 46/6/6
f 9/14/14 8/13/13 46/6/6 45/8/8
f 10/15/15 9/14/14 45/8/8 56/10/10
f 7/11/11 12/16/16 11/17/17 6/12/12
f 8/13/13 13/18/18 12/16/16 7/11/11
f 9/14/14 14/19/19 13/18/18 8/13/13
f 15/20/20 14/19/19 9/14/14 10/15/15
s 2
f 12/21/21 18/22/22 17/23/23 11/24/24
f 13/25/25 19/26/26 18/22/22 12/21/21
f 14/27/27 20/28/28 19/26/26 13/25/25
f 16/29/29 21/30/30 20/28/28 14/27/27 15/31/31
f 18/22/22 24/32/32 23/33/33 22/34/34 17/23/23
f 19/26/26 25/35/35 24/32/32 18/22/22
f 20/28/28 26/36/36 25/35/35 19/26/26
f 27/37/37 26/36/36 20/28/28 21/30/30
s 1
f 24/38/38 29/39/39 28/40/40 23/41/41
f 25/42/42 30/43/43 29/39/39 24/38/38
f 26/44/44 31/45/45 30/43/43 25/42/42
f 32/46/46 31/45/45 26/44/44 27/47/47
f 34/48/48 33/49/49 50/50/50 51/51/51
f 35/52/52 34/48/48 51/51/51 52/53/53
f 36/54/54 35/52/52 52/53/53 53/55/55
f 37/56/56 36/54/54 53/55/55 54/57/57
f 34/58/48 39/59/58 38/60/59 33/61/49
f 35/62/52 40/63/60 39/59/58 34/58/48
f 36/64/54 41/65/61 40/63/60 35/62/52
f 42/66/62 41/65/61 36/64/54 37/56/56
f 39/59/58 2/2/2 1/1/1 38/60/59
f 40/63/60 3/5/5 2/2/2 39/59/58
f 41/65/61 4/7/7 3/5/5 40/63/60
f 5/9/9 4/7/7 41/65/61 42/66/62
f 54/57/57 55/67/63 42/66/62 37/56/56
f 55/67/63 56/10/10 5/9/9 42/66/62
f 43/68/64 32/46/46 27/47/47 21/69/65
f 15/20/20 10/15/15 43/68/64 21/69/65
f 15/20/20 21/69/65 16/70/66
f 49/71/67 50/72/50 33/61/49 38/60/59
f 48/4/4 49/71/67 38/60/59 1/1/1
f 44/73/68 28/74/40 50/72/50 49/71/67
f 6/12/12 44/73/68 49/71/67 48/4/4
f 44/73/68 17/75/69 22/76/70 23/77/41 28/74/40
f 6/12/12 11/17/17 17/75/69 44/73/68
f 29/39/39 51/51/51 50/50/50 28/40/40
f 30/43/43 52/53/53 51/51/51 29/39/39
f 31/45/45 53/55/55 52/53/53 30/43/43
f 54/57/57 53/55/55 31/45/45 32/46/46
f 43/68/64 55/67/63 54/57/57 32/46/46
f 10/15/15 56/10/10 55/67/63 43/68/64
s off
f 26/78/71 27/79/72 58/121/73 57/122/74
s 5
f 23/80/75 24/81/76 60/82/77 59/83/78
f 24/81/76 25/84/79 61/85/80 60/82/77
f 25/84/79 26/86/81 62/87/82 61/85/80
f 26/86/81 27/88/83 63/89/84 62/87/82
s 6
f 65/90/85 64/91/86 11/92/87 17/93/88
f 66/94/89 65/90/85 17/93/88 22/95/90 23/96/91
s 7
f 11/97/92 12/98/93 80/99/94 81/100/95
f 12/98/93 13/101/96 79/102/97 80/99/94
f 13/101/96 14/103/98 78/104/99 79/102/97
f 14/103/98 15/105/100 77/106/101 78/104/99
s 8
f 72/107/102 71/108/103 15/109/104 16/110/105 21/111/106
f 73/112/107 72/107/102 21/111/106 27/113/108
s 5
f 60/82/77 61/85/80 75/114/109 74/115/110
f 61/85/80 62/87/82 76/116/111 75/114/109
s 7
f 78/104/99 77/106/101 70/117/112 69/118/113
f 81/100/95 80/99/94 68/119/114 67/120/115
