# This file uses centimeters as units for non-parametric coordinates.

mtllib pera.mtl
v -76.347801 -290.608093 70.876831
v -45.544899 -290.608093 92.062355
v -7.074201 -290.608093 101.915855
v 33.952404 -290.608093 94.525795
v 74.467712 -290.608093 65.950081
v -162.127197 -169.054413 164.388412
v -91.297104 -169.054413 212.340607
v -2.835300 -169.054413 234.643982
v 91.503799 -169.054413 217.916382
v 184.667404 -169.054413 153.236572
v -171.766617 -28.784702 160.832916
v -105.267097 -28.784702 207.767166
v -22.213799 -28.784702 229.597290
v 66.357399 -28.784702 213.224823
v 153.824722 -28.784702 149.917664
v -133.696701 111.485008 87.021469
v -87.059601 111.485008 112.828636
v -28.813301 111.485008 124.831932
v 33.302799 111.485008 115.829323
v 94.645210 111.485008 81.020103
v -135.338394 200.998749 48.186138
v -110.330719 207.908112 62.876438
v -79.097702 216.537521 69.709503
v -45.789097 225.740433 64.584465
v -12.896003 234.828491 44.769539
v -154.429214 195.724014 27.052021
v -110.230324 247.655365 12.770588
v -91.444237 252.845810 12.770588
v -72.658234 258.036285 12.770588
v -0.860601 238.153687 27.052021
v -161.899200 193.660110 -0.573164
v -110.230324 247.655365 -1.084009
v -72.658127 258.036285 -1.084009
v 7.024896 240.332382 -0.573164
v -154.722717 195.643005 -30.247950
v -110.632828 247.544067 -15.966518
v -91.469330 252.838867 -15.966518
v -72.305733 258.133575 -15.966518
v 1.507898 238.808105 -30.247950
v -140.733612 199.508011 -50.357063
v -115.726120 206.417404 -66.755661
v -79.097603 216.537521 -75.979759
v -41.639095 226.887039 -69.830544
v -19.951099 232.879211 -56.506554
v -143.758102 111.485008 -86.090561
v -97.121109 111.485008 -114.898132
v -28.813301 111.485008 -131.102448
v 41.042202 111.485008 -120.299675
v 81.487900 111.485008 -96.893478
v -186.113113 -28.784702 -154.005249
v -119.613602 -28.784702 -206.397278
v -22.213799 -28.784702 -235.867828
v 77.393105 -28.784702 -216.220779
v 135.064102 -28.784702 -173.652435
v -177.408188 -169.054413 -157.276901
v -106.577896 -169.054413 -210.805038
v -2.835300 -169.054413 -240.914520
v 103.258301 -169.054413 -220.841492
v 164.684799 -169.054413 -177.349945
v -82.993408 -290.608093 -71.235413
v -52.190399 -290.608093 -94.884087
v -7.074201 -290.608093 -108.186531
v 39.064201 -290.608093 -99.318237
v 65.777809 -290.608093 -80.103554
v -100.224106 -290.608093 -42.235344
v -54.201401 -312.710999 -42.235344
v -7.135801 -312.710999 -42.235344
v 39.929596 -312.710999 -42.235344
v 92.209801 -290.608093 -42.235344
v -109.063698 -290.608093 0.559760
v -53.212704 -312.710999 0.559760
v -7.074201 -323.282318 0.559760
v 39.064201 -312.710999 0.559760
v 99.004715 -290.608093 0.559760
v -99.862404 -290.608093 40.398952
v -53.212704 -312.710999 40.398952
v -7.074201 -312.710999 40.398952
v 39.064201 -312.710999 40.398952
v 89.292305 -290.608093 40.398952
v 225.463898 -169.054413 -91.636620
v 241.088699 -169.054413 5.228395
v 218.755280 -169.054413 95.402542
v 192.127090 -28.784702 -89.758224
v 206.796402 -28.784702 5.050836
v 185.828506 -28.784702 93.311073
v 121.506584 111.485008 -50.764549
v 131.794708 111.485008 1.365755
v 117.089905 111.485008 49.895264
v -217.029327 -169.054413 -91.636620
v -237.355804 -169.054413 5.228395
v -216.197800 -169.054413 95.402542
v -223.311996 -28.784702 -89.758224
v -242.395813 -28.784702 5.050836
v -222.531387 -28.784702 93.311073
v -169.846100 111.485008 -50.764549
v -183.229492 111.485008 1.365755
v -169.298721 111.485008 49.895264
v -127.450409 333.009308 12.770588
v -109.328308 325.836823 12.770588
v -127.450500 333.009308 -1.084148
v -91.206299 318.664307 12.770588
v -91.206200 318.664307 -1.084009
v -109.352509 325.846405 -15.966656
v -127.838898 333.163086 -15.966794
v -90.866203 318.529694 -15.966518
v -98.259804 368.264709 12.770588
v -95.394997 361.092224 12.770452
v -95.394997 361.092224 -1.084148
v -98.259804 368.264832 -1.084148
v -92.530296 353.919708 12.770588
v -92.530296 353.919586 -1.084009
v -95.398804 361.101837 -15.966656
v -98.321205 368.418488 -15.966794
v -92.476501 353.784973 -15.966518
vt 0.349020 0.580960
vt 0.328380 0.594420
vt 0.397270 0.716060
vt 0.444210 0.675210
vt 0.302800 0.599610
vt 0.333780 0.744290
vt 0.275150 0.591570
vt 0.256580 0.742500
vt 0.247610 0.562120
vt 0.167430 0.672160
vt 0.492110 0.774210
vt 0.541540 0.716950
vt 0.422340 0.826850
vt 0.328870 0.871070
vt 0.133840 0.790480
vt 0.670310 0.760150
vt 0.687620 0.700830
vt 0.649670 0.826440
vt 0.636810 0.897110
vt 0.982400 0.012280
vt 0.869540 0.001950
vt 0.868780 0.176210
vt 0.939980 0.192650
vt 0.791210 0.666330
vt 0.784100 0.638370
vt 0.801610 0.698570
vt 0.819950 0.728690
vt 0.910210 0.364660
vt 0.946310 0.377430
vt 0.837500 0.588410
vt 0.778880 0.610150
vt 0.843230 0.613360
vt 0.850680 0.634770
vt 0.889910 0.366900
vt 0.893940 0.449850
vt 0.840270 0.564290
vt 0.778000 0.578950
vt 0.988520 0.588570
vt 0.990840 0.591940
vt 0.987710 0.573940
vt 0.984080 0.579140
vt 0.998040 0.573100
vt 0.988610 0.566570
vt 0.864700 0.371050
vt 0.880610 0.461830
vt 0.843140 0.537940
vt 0.781880 0.545620
vt 0.979830 0.565360
vt 0.980130 0.568940
vt 0.977340 0.560260
vt 0.841870 0.383310
vt 0.865860 0.475160
vt 0.793900 0.491680
vt 0.784050 0.519350
vt 0.854700 0.506130
vt 0.802190 0.456160
vt 0.813060 0.423100
vt 0.822900 0.404150
vt 0.701950 0.420300
vt 0.707330 0.478300
vt 0.691740 0.349650
vt 0.688900 0.284250
vt 0.699130 0.246410
vt 0.562410 0.368170
vt 0.585520 0.437860
vt 0.525770 0.287010
vt 0.493780 0.211150
vt 0.493730 0.156510
vt 0.454850 0.381840
vt 0.484960 0.441110
vt 0.397490 0.316990
vt 0.307370 0.273020
vt 0.215560 0.269650
vt 0.350470 0.454350
vt 0.365400 0.478670
vt 0.324610 0.430830
vt 0.291420 0.420150
vt 0.267500 0.428460
vt 0.339730 0.492280
vt 0.371700 0.501900
vt 0.307670 0.480530
vt 0.275960 0.467560
vt 0.240940 0.455310
vt 0.333890 0.523910
vt 0.372680 0.532930
vt 0.302570 0.515050
vt 0.271910 0.506180
vt 0.232270 0.497500
vt 0.332170 0.554460
vt 0.364490 0.560090
vt 0.300970 0.548240
vt 0.270540 0.542220
vt 0.237420 0.537100
vt 0.141740 0.390080
vt 0.115920 0.506300
vt 0.132670 0.609640
vt 0.027790 0.278030
vt 0.004410 0.406450
vt 0.001950 0.554430
vt 0.055100 0.699590
vt 0.600330 0.084190
vt 0.734490 0.205520
vt 0.702350 0.035320
vt 0.779810 0.183320
vt 0.800290 0.009780
vt 0.829740 0.175360
vt 0.497990 0.494410
vt 0.497530 0.563320
vt 0.478700 0.624410
vt 0.597250 0.499840
vt 0.595880 0.579740
vt 0.576240 0.652380
vt 0.709620 0.526400
vt 0.707260 0.586390
vt 0.699650 0.643310
vt 0.946150 0.608340
vt 0.950100 0.593990
vt 0.949510 0.581510
vt 0.940800 0.624690
vt 0.968360 0.528230
vt 0.980640 0.521220
vt 0.951950 0.568510
vt 0.952060 0.551950
vt 0.954870 0.535660
vt 0.984860 0.600570
vn -0.461252 -0.740426 0.488893
vn -0.259157 -0.761254 0.594416
vn -0.371911 -0.368906 0.851816
vn -0.635336 -0.375678 0.674696
vn -0.021998 -0.773056 0.633956
vn -0.015198 -0.352788 0.935580
vn 0.246104 -0.774173 0.583172
vn 0.394628 -0.322764 0.860286
vn 0.440934 -0.770311 0.460650
vn 0.675281 -0.303732 0.672118
vn -0.384287 0.275470 0.881158
vn -0.659830 0.226679 0.716409
vn -0.035384 0.316584 0.947904
vn 0.358451 0.342985 0.868259
vn 0.637758 0.349356 0.686451
vn -0.326665 0.505884 0.798355
vn -0.584900 0.450192 0.674699
vn -0.024876 0.551753 0.833637
vn 0.302854 0.570764 0.763222
vn 0.542254 0.572698 0.614799
vn -0.384056 0.462166 0.799315
vn -0.607294 0.420292 0.674202
vn -0.107745 0.521554 0.846388
vn 0.191069 0.603901 0.773820
vn 0.394857 0.674359 0.623961
vn -0.631769 0.542103 0.554069
vn -0.814515 0.394331 0.425522
vn -0.146455 0.504572 0.850857
vn 0.181037 0.827297 0.531795
vn 0.572598 0.750971 0.328898
vn -0.947226 0.320422 0.009639
vn -0.929478 0.368863 0.003241
vn -0.563529 0.643244 0.518336
vn 0.195002 0.077883 0.977706
vn 0.928668 0.370913 0.000001
vn -0.657024 0.753801 0.010166
vn 0.620911 0.061303 0.781481
vn 0.994918 0.100535 0.005479
vn 0.649778 0.759452 0.031965
vn 0.549544 0.835305 0.016333
vn -0.638903 0.558987 -0.528523
vn -0.849033 0.393168 -0.352933
vn 0.206538 0.082483 -0.974956
vn -0.572382 0.658104 -0.489160
vn 0.645543 0.065841 -0.760881
vn 0.579525 0.736710 -0.348437
vn 0.175605 0.847018 -0.501720
vn -0.403673 0.459817 -0.790959
vn -0.650624 0.420475 -0.632368
vn -0.159476 0.536463 -0.828719
vn -0.118973 0.519354 -0.846237
vn 0.157835 0.611831 -0.775081
vn 0.414265 0.691088 -0.592268
vn -0.351228 0.499065 -0.792195
vn -0.633967 0.442298 -0.634397
vn -0.036604 0.549741 -0.834533
vn 0.268674 0.574367 -0.773251
vn 0.568761 0.569774 -0.593185
vn -0.411915 0.271044 -0.869977
vn -0.709226 0.219861 -0.669821
vn -0.052025 0.312081 -0.948630
vn 0.319128 0.340474 -0.884441
vn 0.668686 0.351492 -0.655219
vn -0.400067 -0.367191 -0.839713
vn -0.681713 -0.374594 -0.628448
vn -0.029483 -0.350978 -0.935920
vn 0.353702 -0.332401 -0.874302
vn 0.704184 -0.296802 -0.645007
vn -0.276787 -0.761597 -0.585968
vn -0.491139 -0.744783 -0.451752
vn -0.033709 -0.773280 -0.633168
vn 0.216161 -0.781740 -0.584943
vn 0.462804 -0.772214 -0.435314
vn -0.216653 -0.953158 -0.211073
vn -0.618687 -0.753269 -0.223187
vn -0.004999 -0.966677 -0.255951
vn 0.201331 -0.958367 -0.202484
vn 0.573828 -0.784148 -0.236291
vn -0.269490 -0.963002 0.001548
vn -0.653962 -0.756526 0.001685
vn 0.000053 -1.000000 -0.000157
vn 0.258536 -0.965991 0.004496
vn 0.615340 -0.787966 0.021584
vn -0.222555 -0.948036 0.227369
vn -0.595767 -0.754577 0.275090
vn -0.003063 -0.963287 0.268455
vn 0.207397 -0.953202 0.219984
vn 0.577886 -0.786224 0.218861
vn 0.891351 -0.277170 -0.358705
vn 0.962273 -0.270076 0.033013
vn 0.900332 -0.278466 0.334454
vn 0.859694 0.348351 -0.373601
vn 0.937870 0.345241 0.034768
vn 0.872540 0.347343 0.343550
vn 0.751318 0.565016 -0.340996
vn 0.828447 0.559131 0.032379
vn 0.762536 0.562159 0.320180
vn -0.869517 -0.377316 -0.318705
vn -0.926657 -0.375872 0.005116
vn -0.838839 -0.376342 0.393339
vn -0.921898 0.170820 -0.347743
vn -0.987221 0.159262 0.005575
vn -0.885294 0.182504 0.427722
vn -0.860003 0.379440 -0.341204
vn -0.930571 0.366095 0.003352
vn -0.817250 0.398608 0.416189
vn 0.000000 0.000000 1.000000
vn -0.779204 0.077337 0.621981
vn -0.995003 0.098969 0.013220
vn 0.541939 0.112319 0.832878
vn 0.979063 0.203327 0.009689
vn -0.801548 0.081307 -0.592376
vn 0.000005 -0.000002 -1.000000
vn 0.568163 0.119346 -0.814216
s 1
usemtl pera:defaultMat
f 1/1/1 2/2/2 7/3/3 6/4/4
f 2/2/2 3/5/5 8/6/6 7/3/3
f 3/5/5 4/7/7 9/8/8 8/6/6
f 4/7/7 5/9/9 10/10/10 9/8/8
f 6/4/4 7/3/3 12/11/11 11/12/12
f 7/3/3 8/6/6 13/13/13 12/11/11
f 8/6/6 9/8/8 14/14/14 13/13/13
f 9/8/8 10/10/10 15/15/15 14/14/14
f 11/12/12 12/11/11 17/16/16 16/17/17
f 12/11/11 13/13/13 18/18/18 17/16/16
f 13/13/13 14/14/14 19/19/19 18/18/18
f 14/20/14 15/21/15 20/22/20 19/23/19
f 16/17/17 17/16/16 22/24/21 21/25/22
f 17/16/16 18/18/18 23/26/23 22/24/21
f 18/18/18 19/19/19 24/27/24 23/26/23
f 19/23/19 20/22/20 25/28/25 24/29/24
f 21/25/22 22/24/21 27/30/26 26/31/27
f 22/24/21 23/26/23 28/32/28 27/30/26
f 23/26/23 24/27/24 29/33/29 28/32/28
f 24/29/24 25/28/25 30/34/30 29/35/29
f 26/31/27 27/30/26 32/36/31 31/37/32
f 106/38/33 107/39/34 108/40/35 109/41/36
f 107/39/34 110/42/37 111/43/38 108/40/35
f 29/35/29 30/34/30 34/44/39 33/45/40
f 31/37/32 32/36/31 36/46/41 35/47/42
f 109/41/36 108/40/35 112/48/43 113/49/44
f 108/40/35 111/43/38 114/50/45 112/48/43
f 33/45/40 34/44/39 39/51/46 38/52/47
f 35/47/42 36/46/41 41/53/48 40/54/49
f 36/46/41 37/55/50 42/56/51 41/53/48
f 37/55/50 38/52/47 43/57/52 42/56/51
f 38/52/47 39/51/46 44/58/53 43/57/52
f 40/54/49 41/53/48 46/59/54 45/60/55
f 41/53/48 42/56/51 47/61/56 46/59/54
f 42/56/51 43/57/52 48/62/57 47/61/56
f 43/57/52 44/58/53 49/63/58 48/62/57
f 45/60/55 46/59/54 51/64/59 50/65/60
f 46/59/54 47/61/56 52/66/61 51/64/59
f 47/61/56 48/62/57 53/67/62 52/66/61
f 48/62/57 49/63/58 54/68/63 53/67/62
f 50/65/60 51/64/59 56/69/64 55/70/65
f 51/64/59 52/66/61 57/71/66 56/69/64
f 52/66/61 53/67/62 58/72/67 57/71/66
f 53/67/62 54/68/63 59/73/68 58/72/67
f 55/70/65 56/69/64 61/74/69 60/75/70
f 56/69/64 57/71/66 62/76/71 61/74/69
f 57/71/66 58/72/67 63/77/72 62/76/71
f 58/72/67 59/73/68 64/78/73 63/77/72
f 60/75/70 61/74/69 66/79/74 65/80/75
f 61/74/69 62/76/71 67/81/76 66/79/74
f 62/76/71 63/77/72 68/82/77 67/81/76
f 63/77/72 64/78/73 69/83/78 68/82/77
f 65/80/75 66/79/74 71/84/79 70/85/80
f 66/79/74 67/81/76 72/86/81 71/84/79
f 67/81/76 68/82/77 73/87/82 72/86/81
f 68/82/77 69/83/78 74/88/83 73/87/82
f 70/85/80 71/84/79 76/89/84 75/90/85
f 71/84/79 72/86/81 77/91/86 76/89/84
f 72/86/81 73/87/82 78/92/87 77/91/86
f 73/87/82 74/88/83 79/93/88 78/92/87
f 75/90/85 76/89/84 2/2/2 1/1/1
f 76/89/84 77/91/86 3/5/5 2/2/2
f 77/91/86 78/92/87 4/7/7 3/5/5
f 78/92/87 79/93/88 5/9/9 4/7/7
f 69/83/78 64/78/73 59/73/68 80/94/89
f 74/88/83 69/83/78 80/94/89 81/95/90
f 79/93/88 74/88/83 81/95/90 82/96/91
f 5/9/9 79/93/88 82/96/91 10/10/10
f 80/94/89 59/73/68 54/97/63 83/98/92
f 81/95/90 80/94/89 83/98/92 84/99/93
f 82/96/91 81/95/90 84/99/93 85/100/94
f 10/10/10 82/96/91 85/100/94 15/15/15
f 83/101/92 54/68/63 49/63/58 86/102/95
f 84/103/93 83/101/92 86/102/95 87/104/96
f 85/105/94 84/103/93 87/104/96 88/106/97
f 15/21/15 85/105/94 88/106/97 20/22/20
f 86/102/95 49/63/58 44/58/53 39/51/46
f 87/104/96 86/102/95 39/51/46 34/44/39
f 88/106/97 87/104/96 34/44/39 30/34/30
f 20/22/20 88/106/97 30/34/30 25/28/25
f 60/75/70 65/80/75 89/107/98 55/70/65
f 65/80/75 70/85/80 90/108/99 89/107/98
f 70/85/80 75/90/85 91/109/100 90/108/99
f 75/90/85 1/1/1 6/4/4 91/109/100
f 55/70/65 89/107/98 92/110/101 50/65/60
f 89/107/98 90/108/99 93/111/102 92/110/101
f 90/108/99 91/109/100 94/112/103 93/111/102
f 91/109/100 6/4/4 11/12/12 94/112/103
f 50/65/60 92/110/101 95/113/104 45/60/55
f 92/110/101 93/111/102 96/114/105 95/113/104
f 93/111/102 94/112/103 97/115/106 96/114/105
f 94/112/103 11/12/12 16/17/17 97/115/106
f 45/60/55 95/113/104 35/47/42 40/54/49
f 95/113/104 96/114/105 31/37/32 35/47/42
f 96/114/105 97/115/106 26/31/27 31/37/32
f 97/115/106 16/17/17 21/25/22 26/31/27
f 27/30/26 28/32/28 99/116/107 98/117/108
f 32/36/31 27/30/26 98/117/108 100/118/109
f 28/32/28 29/33/29 101/119/110 99/116/107
f 29/35/29 33/45/40 102/120/111 101/121/110
f 37/55/50 36/46/41 104/122/112 103/123/113
f 36/46/41 32/36/31 100/118/109 104/122/112
f 33/45/40 38/52/47 105/124/114 102/120/111
f 38/52/47 37/55/50 103/123/113 105/124/114
f 98/117/108 99/116/107 107/39/34 106/38/33
f 100/118/109 98/117/108 106/38/33 109/41/36
f 99/116/107 101/119/110 110/125/37 107/39/34
f 101/121/110 102/120/111 111/43/38 110/42/37
f 103/123/113 104/122/112 113/49/44 112/48/43
f 104/122/112 100/118/109 109/41/36 113/49/44
f 102/120/111 105/124/114 114/50/45 111/43/38
f 105/124/114 103/123/113 112/48/43 114/50/45
