# This file uses centimeters as units for non-parametric coordinates.

mtllib quesadillaA.mtl
v -60.530731 14.499435 -212.517609
v 4.581303 14.244737 -207.649582
v 77.167679 32.015236 -170.006134
v 120.903236 29.385050 -120.372421
v 155.858124 27.158365 -39.277878
v -60.530731 4.518092 -212.510376
v 4.581303 4.263393 -207.642395
v 77.167679 11.648751 -169.991516
v 120.903236 11.684451 -120.359604
v 155.858124 11.742851 -39.266777
v -60.530731 -0.145981 -212.507080
v 4.581303 -0.400679 -207.639023
v 77.167679 -1.875870 -169.984619
v 120.903236 -1.840171 -120.352829
v 155.858124 -1.781772 -39.259876
v -60.530731 -2.781366 -204.729538
v 4.581303 -3.036364 -200.384232
v 77.167679 -3.859260 -164.022675
v 120.903236 -3.824759 -116.100525
v 155.858124 -2.314568 -37.802483
v -68.005081 -4.464156 -109.439980
v 4.581303 -4.464156 -109.439980
v 77.167679 -3.819959 -109.432175
v 120.903236 -4.215658 -73.820274
v 158.994110 -2.682566 -17.454302
v -68.005081 -5.876448 2.888481
v 4.581303 -5.876448 2.888481
v 77.167679 -5.424550 2.896282
v 120.903236 -5.424650 2.675183
v 158.994110 -3.008863 2.894582
v -68.005081 -6.355445 115.216240
v 4.581303 -6.355445 115.216240
v 80.925560 -5.818249 115.220840
v 120.903236 -4.709054 72.219383
v 158.994110 -3.415161 23.243364
v -64.869087 1.715308 200.968460
v 4.581303 1.705608 187.383926
v 80.925560 1.599809 151.572037
v 115.638474 -0.947475 128.835251
v 158.994110 -3.620860 43.591846
v -63.098808 4.251194 206.094528
v 4.581303 4.242993 194.673004
v 80.925560 4.367593 157.387283
v 115.638474 3.106200 133.321121
v 158.994110 -1.721072 45.037540
v -63.098808 12.037549 206.089020
v 4.581303 12.029249 194.667465
v 80.925560 21.928593 157.377502
v 115.638474 18.969210 133.312729
v 158.994110 11.803550 45.030640
v -64.869087 16.983120 180.541351
v 4.581303 16.973022 166.472046
v 80.925560 30.569044 157.371307
v 115.638474 32.119434 133.303238
v 158.994110 27.219059 45.019539
v -68.005081 17.839716 119.206718
v 4.581303 17.839716 119.206718
v 80.925560 32.109337 119.199303
v 120.903236 28.722855 33.491604
v 158.994110 27.203861 23.945261
v -68.005081 11.969849 2.875582
v 4.581303 11.969849 2.875582
v 77.167679 27.188662 2.870781
v 120.903236 27.188560 2.641683
v 158.994110 27.188662 2.870781
v -68.005081 13.006043 -113.460457
v 4.581303 13.006043 -113.460457
v 77.167679 29.389950 -113.466125
v 120.903236 27.131462 -76.582268
v 158.994110 27.173561 -18.203897
v 158.994110 11.788350 23.956360
v 158.994110 11.773149 2.881881
v 158.994110 11.758050 -18.192797
v 158.994110 -1.736272 23.963161
v 158.994110 -1.751471 2.888682
v 158.994110 -1.766571 -18.185894
v -68.005081 10.284760 119.212120
v -68.005081 4.414893 2.881081
v -68.005081 4.331193 -113.454163
v -68.005081 3.473798 119.217010
v -68.005081 -0.249080 2.884381
v -68.005081 -0.332779 -113.450737
v -52.463566 -5.876448 2.888481
v -52.463566 -6.355445 115.216240
v -44.687515 1.716608 202.676346
v -44.687515 4.254194 210.346390
v -44.687515 12.040548 210.340790
v -49.999081 16.981020 177.528976
v -52.463566 17.839716 119.206718
v -52.463566 11.969849 2.875582
v -52.463566 13.006043 -113.460457
v -50.759880 14.442136 -215.282272
v -50.759880 4.460792 -215.275085
v -50.759880 -0.203180 -215.271790
v -50.759880 -2.838664 -207.606110
v -52.463566 -4.464056 -109.439980
v -2.723454 3.969794 -192.023285
v 69.862923 11.035854 -157.140518
v 113.598480 11.068954 -111.157875
v 148.553375 11.123055 -36.027493
v 69.862923 -1.033075 -157.134720
v -2.723454 0.019118 -192.020386
v 113.598480 -0.999976 -111.152161
v 148.553375 -0.945876 -36.021694
v -2.723454 4.134794 179.645447
v 75.127800 4.189394 145.101273
v 109.840698 2.841501 123.870277
v 151.689346 -0.889676 42.077560
v 75.127800 19.677307 145.092972
v -2.723454 10.730157 179.640747
v 109.840698 16.891319 123.863091
v 151.689346 11.179354 42.071758
v 151.689346 11.165254 22.546968
v 151.689346 11.151253 3.021981
v 151.689346 11.137155 -16.503107
v 151.689346 -0.903677 22.552769
v 151.689346 -0.917776 3.027781
v 151.689346 -0.931776 -16.497305
v -51.992275 4.145294 194.166489
v -51.992275 10.740656 194.161682
v -58.064640 4.136494 -199.094757
v -58.064640 0.185916 -199.091965
v 84.999039 30.227646 145.087662
v 109.840698 28.030058 123.855072
v 119.325844 27.128662 56.879272
v 92.316399 30.470646 71.791183
v 151.689346 27.397560 44.626141
v 151.689346 27.100760 41.209763
v 98.284462 27.080563 2.798382
v 85.177040 27.080763 3.010581
vt 0.115630 0.172370
vt 0.128040 0.178760
vt 0.142560 0.169690
vt 0.142620 0.141370
vt 0.235780 0.196340
vt 0.324470 0.290650
vt 0.347290 0.260930
vt 0.248110 0.176090
vt 0.394210 0.355530
vt 0.416600 0.332210
vt 0.490860 0.440910
vt 0.509910 0.423300
vt 0.122750 0.141180
vt 0.109750 0.171240
vt 0.367940 0.244070
vt 0.384640 0.229430
vt 0.277940 0.135440
vt 0.270750 0.142750
vt 0.434760 0.322720
vt 0.451140 0.308810
vt 0.535280 0.402090
vt 0.520450 0.415100
vt 0.097750 0.189860
vt 0.078200 0.169660
vt 0.314470 0.109280
vt 0.404780 0.211240
vt 0.416570 0.211070
vt 0.332410 0.102900
vt 0.462820 0.292530
vt 0.470490 0.293840
vt 0.544090 0.392700
vt 0.546350 0.393380
vt 0.042930 0.469480
vt 0.010860 0.472470
vt 0.519360 0.223580
vt 0.570130 0.106760
vt 0.534890 0.315910
vt 0.571210 0.411230
vt 0.149390 0.792580
vt 0.175490 0.771870
vt 0.706240 0.347580
vt 0.808660 0.280310
vt 0.647700 0.391980
vt 0.597060 0.431420
vt 0.438210 0.962320
vt 0.427770 0.993150
vt 0.775530 0.568860
vt 0.894400 0.566120
vt 0.693560 0.505770
vt 0.611440 0.455830
vt 0.677980 0.969330
vt 0.699990 0.998040
vt 0.757040 0.643310
vt 0.819010 0.758840
vt 0.718200 0.595200
vt 0.625070 0.483930
vt 0.692100 0.965930
vt 0.727830 0.957490
vt 0.750290 0.655170
vt 0.806930 0.775640
vt 0.715800 0.605060
vt 0.623810 0.487380
vt 0.728820 0.931150
vt 0.692610 0.953550
vt 0.727850 0.671020
vt 0.701750 0.687750
vt 0.756910 0.811580
vt 0.772320 0.803300
vt 0.698380 0.610360
vt 0.678400 0.623960
vt 0.598180 0.505900
vt 0.613390 0.494050
vt 0.628110 0.940020
vt 0.635350 0.917140
vt 0.716030 0.827030
vt 0.677860 0.702450
vt 0.661580 0.708680
vt 0.644300 0.826760
vt 0.667020 0.637520
vt 0.647370 0.647790
vt 0.588250 0.513460
vt 0.568030 0.528680
vt 0.468360 0.922290
vt 0.482320 0.895400
vt 0.596590 0.688860
vt 0.533130 0.806700
vt 0.642180 0.698450
vt 0.627800 0.649550
vt 0.539200 0.586190
vt 0.534370 0.632650
vt 0.560550 0.537410
vt 0.555890 0.534790
vt 0.204170 0.748690
vt 0.227960 0.728910
vt 0.411690 0.583970
vt 0.309910 0.662350
vt 0.441940 0.559140
vt 0.423330 0.574700
vt 0.510470 0.561860
vt 0.547210 0.507160
vt 0.528310 0.485420
vt 0.473960 0.531960
vt 0.076140 0.452830
vt 0.105720 0.446190
vt 0.324400 0.390850
vt 0.205280 0.421690
vt 0.415860 0.419140
vt 0.510420 0.465180
vt 0.570700 0.489530
vt 0.552450 0.466350
vt 0.532230 0.445540
vt 0.580440 0.479890
vt 0.597950 0.466260
vt 0.563720 0.457120
vt 0.582690 0.442090
vt 0.543730 0.437170
vt 0.560280 0.422020
vt 0.609450 0.458870
vt 0.594880 0.432940
vt 0.569120 0.411740
vt 0.461650 0.935780
vt 0.192060 0.758360
vt 0.059220 0.455820
vt 0.455940 0.948040
vt 0.184500 0.764370
vt 0.049910 0.457350
vt 0.903510 0.212800
vt 0.998040 0.565140
vt 0.879980 0.843400
vt 0.859300 0.866080
vt 0.783450 0.910050
vt 0.802490 0.906180
vt 0.187550 0.074500
vt 0.176600 0.085570
vt 0.275160 0.022130
vt 0.246480 0.039070
vt 0.605310 0.001950
vt 0.167750 0.082390
vn -0.985248 -0.000123 -0.171133
vn -0.516073 0.852891 -0.079028
vn 0.009201 0.995730 -0.091854
vn 0.079713 -0.846365 -0.526604
vn -0.020285 0.986463 -0.162723
vn -0.034685 0.981810 -0.186670
vn 0.520159 -0.591887 -0.615714
vn 0.273508 -0.756984 -0.593438
vn 0.512155 0.812851 -0.277436
vn 0.751447 -0.468467 -0.464613
vn 0.617857 0.755883 -0.216552
vn 0.837041 -0.447348 -0.315029
vn 0.104914 0.954223 -0.280093
vn -0.964559 -0.169554 -0.202183
vn 0.354159 -0.848364 -0.393509
vn 0.331372 0.841629 -0.426443
vn 0.137687 0.932672 -0.333414
vn 0.169952 -0.931750 -0.320870
vn 0.605184 -0.693715 -0.390527
vn 0.610922 0.686354 -0.394579
vn 0.746222 0.594484 -0.299570
vn 0.741421 -0.601716 -0.297040
vn -0.339661 -0.939051 -0.053047
vn 0.000401 -0.999031 -0.044010
vn 0.093331 0.961765 -0.257484
vn 0.175393 0.949894 -0.258725
vn 0.024401 -0.999002 -0.037406
vn 0.011110 -0.998901 -0.045538
vn 0.235075 0.955329 -0.179127
vn 0.061596 -0.997487 -0.035020
vn 0.315302 0.939824 -0.131588
vn 0.100555 -0.994612 -0.025224
vn -0.323639 -0.946016 -0.017665
vn -0.000615 -0.999898 -0.014254
vn 0.003678 -0.999934 -0.010935
vn 0.002538 -0.999913 -0.012969
vn 0.018014 -0.999744 -0.013680
vn 0.076342 -0.996951 -0.016167
vn 0.000000 -0.999965 -0.008419
vn -0.380121 -0.924904 -0.007787
vn 0.007215 -0.999941 -0.008107
vn 0.003993 -0.999956 -0.008550
vn 0.022923 -0.999714 -0.006893
vn 0.072217 -0.997368 -0.006520
vn -0.412928 -0.909799 0.041900
vn 0.003658 -0.999280 0.037774
vn 0.027324 -0.998269 0.052087
vn 0.011505 -0.999080 0.041309
vn 0.034926 -0.999140 0.022357
vn 0.073505 -0.997225 0.011827
vn -0.472422 -0.873075 0.120653
vn 0.015028 -0.992284 0.123070
vn 0.064306 -0.983439 0.169447
vn 0.036890 -0.989151 0.142194
vn 0.207817 -0.960092 0.187179
vn 0.146610 -0.985895 0.080720
vn -0.946788 -0.157476 0.280703
vn 0.180301 0.905604 0.383892
vn 0.158397 0.944519 0.287739
vn 0.082967 0.973629 0.212515
vn 0.313641 0.920245 0.234049
vn 0.503835 0.841688 0.194194
vn 0.154550 0.879034 0.451014
vn -0.752327 0.591654 0.289741
vn 0.293620 0.771140 0.564916
vn 0.344796 -0.737784 0.580337
vn 0.261993 -0.819045 0.510417
vn 0.183063 0.871093 0.455724
vn 0.611463 0.668242 0.423752
vn 0.580937 -0.636492 0.507336
vn 0.756210 -0.550689 0.353394
vn 0.755042 0.589006 0.288068
vn -0.554271 0.827114 0.093091
vn 0.012218 0.997541 0.069015
vn 0.273172 0.573049 0.772653
vn 0.353583 -0.433128 0.829084
vn -0.078772 0.978124 0.192530
vn -0.054456 0.993148 0.103397
vn 0.720613 -0.464479 0.514759
vn 0.745651 0.474773 0.467542
vn 0.818172 -0.456940 0.349000
vn 0.869429 0.373810 0.323047
vn -0.440497 0.897576 -0.017871
vn 0.000509 0.999555 -0.029835
vn -0.167045 0.985732 -0.020693
vn -0.106500 0.993965 -0.026304
vn 0.083904 0.995602 -0.041666
vn 0.011293 0.999033 -0.042485
vn 0.041802 0.999038 -0.013286
vn 0.058665 0.998082 -0.019778
vn -0.076213 0.995455 -0.057103
vn 0.014007 0.999743 0.017812
vn -0.456665 0.889447 -0.018478
vn 0.000000 0.999784 -0.020771
vn -0.154200 0.987973 -0.011481
vn -0.115979 0.993100 -0.017363
vn 0.035090 0.998915 -0.030625
vn 0.027769 0.998777 -0.040903
vn -0.014697 0.999880 0.004866
vn 0.402437 0.915406 -0.008692
vn 0.224112 0.974508 -0.010431
vn 0.007902 0.999967 0.002001
vn -0.526771 0.849945 -0.010311
vn 0.000624 0.999938 0.011105
vn -0.156720 0.987393 0.022245
vn -0.120238 0.992633 0.014929
vn 0.007223 0.999788 0.019299
vn 0.183808 0.982895 -0.011481
vn 0.915531 -0.402247 0.000290
vn 0.915531 -0.402248 0.000289
vn 0.915995 -0.395348 -0.068219
vn 0.858528 -0.512766 0.000369
vn 0.862359 0.506297 -0.000365
vn 0.858527 -0.512768 0.000369
vn 0.862359 0.506298 -0.000364
vn 0.840126 -0.538284 -0.066626
vn 0.844474 0.531311 -0.067621
vn 0.328679 0.944441 -0.000680
vn 0.280749 0.959781 -0.000690
vn 0.225389 0.974041 -0.021078
vn -0.999719 -0.005272 0.023117
vn -1.000000 0.000000 0.000000
vn -0.999338 -0.000026 -0.036372
vn -0.999327 0.027933 0.023767
vn -1.000000 0.000000 0.000000
vn -0.998476 -0.037059 -0.040905
vn 0.261920 -0.893091 0.365770
vn 0.241374 0.920562 0.307089
vn 0.130736 0.957185 -0.258273
vn 0.123981 -0.958982 -0.254916
s 1
usemtl quesadillaAb:defaultMat
f 6/1/1 1/2/2 92/3/3 93/4/4
f 2/5/5 3/6/6 8/7/7 7/8/8
f 3/6/6 4/9/9 9/10/10 8/7/7
f 4/9/9 5/11/11 10/12/12 9/10/10
f 94/13/13 11/14/14 6/1/1 93/4/4
f 98/15/15 101/16/16 102/17/17 97/18/18
f 99/19/19 103/20/20 101/16/16 98/15/15
f 104/21/21 103/20/20 99/19/19 100/22/22
f 16/23/23 11/14/14 94/13/13 95/24/24
f 12/25/25 13/26/26 18/27/27 17/28/28
f 13/26/26 14/29/29 19/30/30 18/27/27
f 14/29/29 15/31/31 20/32/32 19/30/30
f 21/33/33 16/23/23 95/24/24 96/34/34
f 17/28/28 18/27/27 23/35/35 22/36/36
f 18/27/27 19/30/30 24/37/37 23/35/35
f 19/30/30 20/32/32 25/38/38 24/37/37
f 83/39/39 26/40/40 21/33/33 96/34/34
f 22/36/36 23/35/35 28/41/41 27/42/42
f 23/35/35 24/37/37 29/43/43 28/41/41
f 24/37/37 25/38/38 30/44/44 29/43/43
f 31/45/45 26/40/40 83/39/39 84/46/46
f 27/42/42 28/41/41 33/47/47 32/48/48
f 28/41/41 29/43/43 34/49/49 33/47/47
f 29/43/43 30/44/44 35/50/50 34/49/49
f 36/51/51 31/45/45 84/46/46 85/52/52
f 32/48/48 33/47/47 38/53/53 37/54/54
f 33/47/47 34/49/49 39/55/55 38/53/53
f 34/49/49 35/50/50 40/56/56 39/55/55
f 41/57/57 36/51/51 85/52/52 86/58/58
f 37/54/54 38/53/53 43/59/59 42/60/60
f 38/53/53 39/55/55 44/61/61 43/59/59
f 39/55/55 40/56/56 45/62/62 44/61/61
f 87/63/63 46/64/64 41/57/57 86/58/58
f 106/65/65 109/66/66 110/67/67 105/68/68
f 107/69/69 111/70/70 109/66/66 106/65/65
f 112/71/71 111/70/70 107/69/69 108/72/72
f 51/73/73 46/64/64 87/63/63 88/74/74
f 47/75/75 48/76/76 53/77/77 52/78/78
f 48/76/76 49/79/79 54/80/80 53/77/77
f 49/79/79 50/81/81 55/82/82 54/80/80
f 56/83/83 51/73/73 88/74/74 89/84/84
f 52/78/78 53/77/77 58/85/85 57/86/86
f 123/87/87 124/88/88 125/89/89 126/90/90
f 124/88/88 127/91/91 128/92/92 125/89/89
f 61/93/93 56/83/83 89/84/84 90/94/94
f 57/86/86 58/85/85 63/95/95 62/96/96
f 126/90/90 125/89/89 129/97/97 130/98/98
f 59/99/99 60/100/100 65/101/101 64/102/102
f 66/103/103 61/93/93 90/94/94 91/104/104
f 62/96/96 63/95/95 68/105/105 67/106/106
f 63/95/95 64/102/102 69/107/107 68/105/105
f 64/102/102 65/101/101 70/108/108 69/107/107
f 1/2/2 66/103/103 91/104/104 92/3/3
f 67/106/106 68/105/105 3/6/6 2/5/5
f 68/105/105 69/107/107 4/9/9 3/6/6
f 69/107/107 70/108/108 5/11/11 4/9/9
f 60/100/100 55/82/82 50/81/81 71/109/109
f 65/101/101 60/100/100 71/109/109 72/110/110
f 70/108/108 65/101/101 72/110/110 73/111/111
f 5/11/11 70/108/108 73/111/111 10/12/12
f 113/112/112 112/71/71 108/72/72 116/113/113
f 114/114/114 113/112/112 116/113/113 117/115/115
f 115/116/116 114/114/114 117/115/115 118/117/117
f 104/21/21 100/22/22 115/116/116 118/117/117
f 74/118/118 45/62/62 40/56/56 35/50/50
f 75/119/119 74/118/118 35/50/50 30/44/44
f 76/120/120 75/119/119 30/44/44 25/38/38
f 15/31/31 76/120/120 25/38/38 20/32/32
f 51/73/73 56/83/83 77/121/121 46/64/64
f 56/83/83 61/93/93 78/122/122 77/121/121
f 61/93/93 66/103/103 79/123/123 78/122/122
f 66/103/103 1/2/2 6/1/1 79/123/123
f 77/121/121 80/124/124 41/57/57 46/64/64
f 78/122/122 81/125/125 80/124/124 77/121/121
f 79/123/123 82/126/126 81/125/125 78/122/122
f 11/14/14 82/126/126 79/123/123 6/1/1
f 41/57/57 80/124/124 31/45/45 36/51/51
f 80/124/124 81/125/125 26/40/40 31/45/45
f 81/125/125 82/126/126 21/33/33 26/40/40
f 82/126/126 11/14/14 16/23/23 21/33/33
f 83/127/39 27/42/42 32/48/48 84/128/46
f 85/129/52 84/128/46 32/48/48 37/54/54
f 86/130/58 85/129/52 37/54/54 42/60/60
f 105/68/68 110/67/67 120/131/127 119/132/128
f 88/74/74 87/63/63 47/75/75 52/78/78
f 89/84/84 88/74/74 52/78/78 57/86/86
f 90/94/94 89/84/84 57/86/86 62/96/96
f 91/104/104 90/94/94 62/96/96 67/106/106
f 92/3/3 91/104/104 67/106/106 2/5/5
f 93/4/4 92/3/3 2/5/5 7/8/8
f 97/18/18 102/17/17 122/133/129 121/134/130
f 95/135/24 94/136/13 12/25/25 17/28/28
f 96/137/34 95/135/24 17/28/28 22/36/36
f 83/127/39 96/137/34 22/36/36 27/42/42
f 7/8/8 8/7/7 98/15/15 97/18/18
f 8/7/7 9/10/10 99/19/19 98/15/15
f 9/10/10 10/12/12 100/22/22 99/19/19
f 13/26/26 12/25/25 102/17/17 101/16/16
f 14/29/29 13/26/26 101/16/16 103/20/20
f 15/31/31 14/29/29 103/20/20 104/21/21
f 42/60/60 43/59/59 106/65/65 105/68/68
f 43/59/59 44/61/61 107/69/69 106/65/65
f 44/61/61 45/62/62 108/72/72 107/69/69
f 48/76/76 47/75/75 110/67/67 109/66/66
f 49/79/79 48/76/76 109/66/66 111/70/70
f 50/81/81 49/79/79 111/70/70 112/71/71
f 71/109/109 50/81/81 112/71/71 113/112/112
f 72/110/110 71/109/109 113/112/112 114/114/114
f 73/111/111 72/110/110 114/114/114 115/116/116
f 10/12/12 73/111/111 115/116/116 100/22/22
f 45/62/62 74/118/118 116/113/113 108/72/72
f 74/118/118 75/119/119 117/115/115 116/113/113
f 75/119/119 76/120/120 118/117/117 117/115/115
f 76/120/120 15/31/31 104/21/21 118/117/117
f 86/130/58 42/60/60 105/68/68 119/132/128
f 119/132/128 120/131/127 87/63/63 86/58/58
f 47/75/75 87/63/63 120/131/127 110/67/67
f 93/4/4 7/8/8 97/18/18 121/134/130
f 121/134/130 122/138/129 94/13/13 93/4/4
f 12/25/25 94/136/13 122/133/129 102/17/17
f 53/77/77 54/80/80 124/88/88 123/87/87
f 58/85/85 53/77/77 123/87/87 126/90/90
f 54/80/80 55/82/82 127/91/91 124/88/88
f 55/82/82 60/100/100 128/92/92 127/91/91
f 60/100/100 59/99/99 125/89/89 128/92/92
f 59/99/99 64/102/102 129/97/97 125/89/89
f 64/102/102 63/95/95 130/98/98 129/97/97
f 63/95/95 58/85/85 126/90/90 130/98/98
